<?xml version="1.0" standalone="no"?>
<!DOCTYPE svg PUBLIC "-//W3C//DTD SVG 1.1//EN" "http://www.w3.org/Graphics/SVG/1.1/DTD/svg11.dtd" >
<!--
2013-9-30: Created.
-->
<svg>
<metadata>
Created by iconfont
</metadata>
<defs>

<font id="iconfont" horiz-adv-x="1024" >
  <font-face
    font-family="iconfont"
    font-weight="500"
    font-stretch="normal"
    units-per-em="1024"
    ascent="896"
    descent="-128"
  />
    <missing-glyph />
    
    <glyph glyph-name="qq" unicode="&#59003;" d="M159.744 350.858667 157.866667 356.746667 156.330667 364.384 155.264 368.522667 155.264 373.770667 155.264 380.085333 155.264 385.76 157.098667 392.501333 159.018667 399.712 161.408 407.178667 164.693333 415.541333 169.045333 424.202667 175.189333 432.906667 175.189333 439.050667 175.829333 444.725333 176.725333 452.490667 179.370667 461.152 181.802667 470.624 183.722667 474.976 185.941333 478.986667 188.8 483.466667 191.914667 486.794667 191.914667 492.896 191.914667 499.850667 191.914667 508.341333 193.749333 519.477333 195.541333 532.277333 198.784 547.722667 203.306667 563.722667 206.592 572.597333 209.92 582.112 213.504 591.114667 217.813333 600.672 222.208 611.168 227.285333 621.024 232.96 631.562667 240.128 642.058667 243.456 647.946667 246.997333 652.896 254.72 663.989333 262.570667 675.082667 271.573333 686.474667 281.173333 697.525333 291.626667 708.448 302.549333 719.712 315.733333 731.829333 324.096 739.125333 334.293333 747.104 344.661333 754.144 355.84 760.842667 366.592 766.816 378.709333 771.765333 391.552 777.909333 404.394667 782.090667 417.152 786.4 430.933333 790.752 444.714667 794.08 459.264 796.810667 473.941333 799.114667 488.405333 801.077333 502.954667 803.04 518.4 803.978667 533.12 803.978667 548.309333 803.978667 564.096 803.978667 579.242667 802.016 594.602667 800.181333 610.176 798.56 624.597333 795.104 639.914667 791.818667 654.250667 788.064 669.994667 783.925333 684.330667 778.805333 698.154667 772.96 712.832 766.816 726.229333 760.074667 739.242667 752.608 752 744.373333 763.093333 736.736 768.170667 732.426667 773.589333 729.269333 783.744 720.565333 792.405333 712.202667 800.981333 703.498667 809.344 693.898667 816.256 684.682667 824.405333 675.082667 830.165333 664.757333 836.010667 655.626667 842.154667 645.002667 847.232 635.701333 855.936 616.074667 860.074667 605.92 863.402667 596.490667 866.688 586.336 869.674667 576.736 871.765333 568.501333 874.325333 558.773333 879.104 541.408 882.090667 526.304 884.096 511.626667 885.674667 499.850667 888.32 481.888 888.917333 478.986667 891.093333 475.701333 896.768 466.4 900.352 460.170667 903.68 453.557333 907.818667 446.56 911.402667 438.112 913.749333 429.450667 916.352 420.021333 918.314667 410.293333 919.253333 405.557333 920.021333 399.712 920.021333 394.592 919.253333 389.514667 919.253333 383.2 917.76 377.098667 914.986667 365.237333 911.829333 359.306667 909.653333 352.522667 909.653333 350.858667 910.677333 348.810667 913.749333 343.818667 927.232 323.978667 937.898667 309.002667 943.018667 298.976 949.845333 288.010667 955.818667 276.021333 962.730667 263.178667 969.685333 248.8 977.408 232.458667 981.76 222.432 985.770667 212.746667 989.269333 202.378667 992.682667 193.162667 995.242667 183.392 997.930667 174.304 1001.258667 156.469333 1003.904 138.208 1005.653333 122.037333 1005.653333 113.205333 1005.653333 105.994667 1005.653333 99.296 1004.501333 91.146667 1002.752 77.28 1000.32 64.693333 996.565333 53.344 995.242667 48.650667 992.682667 43.146667 990.506667 39.306667 987.562667 34.4 985.002667 31.498667 981.76 27.573333 978.901333 24.458667 975.744 21.728 972.074667 20.106667 968.746667 18.485333 966.016 17.589333 963.584 17.589333 961.834667 17.589333 959.146667 18.485333 954.069333 21.002667 951.68 22.624 949.333333 24.458667 946.602667 26.848 943.914667 29.536 939.434667 34.4 934.101333 41.482667 929.92 48.650667 925.824 54.496 921.770667 61.237333 916.010667 73.269333 909.653333 85.728 908.842667 86.069333 907.818667 86.069333 905.173333 84.106667 903.68 80.864 901.077333 76.853333 896.768 64.693333 890.069333 47.456 881.664 26.848 875.349333 16.48 868.565333 5.770667 860.672-6.389333 852.352-18.250667 848-23.584 842.752-29.472 830.762667-41.248 831.829333-42.314667 833.408-43.978667 839.424-47.562667 864.426667-59.509333 875.349333-65.610667 885.674667-71.626667 896-79.136 905.173333-86.901333 909.653333-90.357333 912.896-94.368 916.352-99.018667 919.253333-104.138667 920.746667-108.32 922.666667-113.397333 923.434667-117.706667 924.245333-122.826667 923.434667-126.282667 923.434667-129.696 922.666667-133.322667 920.746667-136.565333 920.021333-139.168 918.314667-142.24 913.749333-148.426667 909.653333-153.333333 906.325333-157.088 903.68-159.818667 896.768-164.896 888.917333-169.205333 880.597333-173.472 871.765333-177.44 861.738667-181.322667 856.490667-182.944 851.669333-184.394667 840.149333-187.04 828.245333-189.6 816.256-192.16 803.242667-194.250667 789.76-194.805333 775.936-196.512 762.325333-196.512 747.904-196.512 733.269333-196.512 717.738667-195.530667 703.317333-194.250667 687.914667-192.16 672.597333-190.496 656.341333-188.192 640.682667-184.394667 625.408-181.322667 610.176-176.970667 594.602667-171.466667 579.242667-166.816 571.264-164.128 564.096-161.525333 559.530667-159.818667 555.008-158.922667 549.205333-158.922667 542.293333-158.922667 527.616-157.856 520.192-157.088 510.592-156.021333 504.490667-161.525333 496.042667-166.816 484.693333-172.405333 472.149333-179.232 464.469333-182.944 456.533333-186.016 438.912-193.184 429.312-195.530667 419.285333-198.304 405.333333-200.906667 396.672-201.717333 387.413333-202.485333 377.770667-203.509333 366.592-203.978667 355.84-203.978667 344.661333-203.978667 320.853333-203.978667 294.997333-203.509333 269.909333-200.906667 257.194667-199.2 244.949333-197.365333 232.96-195.530667 221.013333-193.184 209.92-189.6 198.784-187.04 188.8-182.944 179.370667-179.232 170.581333-175.008 162.944-170.442667 155.264-164.896 152.704-162.165333 149.290667-158.922667 146.688-156.021333 144.341333-152.778667 142.250667-149.408 140.586667-146.165333 138.197333-139.168 137.344-135.541333 136.277333-131.488 136.277333-127.776 137.344-123.594667 137.344-119.370667 138.197333-115.189333 138.197333-112.672 138.197333-106.826667 138.624-102.304 140.586667-97.226667 142.250667-92.106667 145.28-85.962667 147.498667-83.616 149.290667-80.928 154.069333-75.082667 157.866667-72.138667 161.408-70.005333 164.693333-67.274667 169.941333-65.610667 174.122667-63.136 179.370667-60.362667 185.344-58.613333 191.317333-56.778667 198.229333-55.328 204.8-54.389333 212.565333-53.365333 221.013333-52.768 223.232-52 223.701333-52 224.768-51.104 224.768-50.122667 223.232-47.989333 218.709333-45.856 207.530667-36.170667 200.021333-30.197333 191.317333-22.602667 182.528-14.026667 173.354667-3.104 162.944 9.184 159.018667 15.797333 153.770667 22.624 149.290667 30.602667 145.28 39.306667 139.818667 47.456 136.277333 56.970667 132.096 66.272 127.872 76.853333 124.757333 86.837333 121.856 99.296 120.96 99.68 120.106667 99.68 119.637333 100.618667 118.613333 100.618667 116.821333 99.68 115.882667 99.296 114.688 97.162667 114.218667 94.645333 113.322667 92.384 111.744 88.672 106.624 79.498667 103.936 73.952 99.754667 69.216 95.232 63.370667 90.325333 56.970667 85.077333 51.210667 78.976 45.706667 73.216 40.458667 66.986667 36.405333 60.117333 32.096 53.504 29.536 45.696 27.573333 38.101333 26.848 37.333333 26.848 36.266667 26.848 34.56 27.573333 33.152 30.602667 30.890667 32.096 27.946667 39.306667 26.112 43.146667 24.149333 48.650667 22.528 54.496 21.632 60.213333 19.2 73.269333 18.304 80.864 18.304 88.672 18.304 105.994667 19.2 124.725333 20.736 134.325333 22.528 144.181333 24.149333 154.805333 27.008 164.661333 30.293333 176.096 33.621333 187.104 38.101333 198.538667 42.282667 209.418667 48.042667 220.512 53.504 232.458667 60.117333 243.722667 67.882667 255.882667 75.776 266.805333 84.053333 278.88 90.922667 287.285333 99.754667 297.013333 109.013333 306.698667 113.322667 311.349333 118.613333 316.597333 126.208 323.210667 134.016 329.952 146.688 341.301333 156.330667 348.341333Z"  horiz-adv-x="1024" />

    
    <glyph glyph-name="z-alipay" unicode="&#59084;" d="M807.894 815.551h-587.297c-76.004 0-138.188-62.185-138.188-138.188v-585.569c0-76.002 62.184-138.186 138.188-138.186h587.297c76.002 0 138.184 62.184 138.184 138.186v5.181c0 0-224.554 93.278-338.56 148.555-76.003-93.278-174.46-150.28-276.374-150.28-171.007 0-229.736 150.28-148.552 248.735 17.273 20.73 48.366 41.459 95.006 53.548 74.274 19 191.736-10.361 300.559-46.636 19 36.275 36.27 76.002 48.363 119.188l-338.56-0v34.545h174.463v58.73l-210.735 0v34.548l210.736-0v88.095c0 0 0 15.544 15.543 15.544h84.641v-101.913l209.008 0v-34.546h-209.008v-60.46h171.006c-17.274-65.638-41.453-127.824-72.545-181.369 51.819-18.999 98.455-36.275 133.005-48.368 124.366-41.454 152.003-44.91 152.003-44.91v447.381c0 76.003-62.181 138.188-138.184 138.188zM293.143 347.441c-22.452-1.73-62.185-12.091-84.638-31.091-67.368-58.736-27.639-164.1 107.095-164.1 77.731 0 155.461 50.096 219.372 129.551-88.096 43.185-162.369 74.278-241.83 65.641z"  horiz-adv-x="1024" />

    
    <glyph glyph-name="zijietiaodongxiaochengxu" unicode="&#59292;" d="M678.4 128l-70.4-70.4c-38.4-38.4-83.2-57.6-134.4-57.6s-96 19.2-134.4 57.6l-153.6 153.6c-76.8 76.8-76.8 198.4 0 275.2L256 556.8h6.4l70.4-70.4v-6.4L256 409.6c-32-32-32-89.6 0-128L409.6 128c32-32 89.6-32 128 0l70.4 70.4h6.4l64-70.4zM377.6 345.6l172.8 172.8h6.4l89.6-89.6v-6.4l-172.8-172.8h-6.4L377.6 345.6z m460.8-57.6L768 217.6h-6.4l-70.4 70.4L768 364.8c32 32 32 89.6 0 128L614.4 640c-19.2 19.2-44.8 32-70.4 25.6-25.6 0-44.8-12.8-57.6-25.6l-64-64h-6.4L345.6 640l70.4 70.4c76.8 76.8 198.4 76.8 275.2 0l153.6-153.6c70.4-70.4 70.4-192-6.4-268.8z m0 0"  horiz-adv-x="1024" />

    
    <glyph glyph-name="baidu" unicode="&#59595;" d="M184.310244 356.416867c111.396518 23.899253 96.196993 156.995092 92.797099 186.094183-5.499828 44.898596-58.198181 123.296146-129.795943 117.09634C57.214216 651.507643 44.014629 521.311713 44.014629 521.311713c-12.099622-60.198118 29.199087-188.794098 140.295615-164.894846zM302.506549 125.02410099999997c-3.299897-9.399706-10.499672-33.298959-4.299866-54.098309 12.399612-46.69854 52.998343-48.798475 52.998343-48.798475h58.298178V164.62286300000005h-62.398049c-27.999125-8.399737-41.5987-30.299053-44.598606-39.598762z m88.397236 454.485792c61.598074 0 111.196524 70.797787 111.196524 158.295052C502.100309 825.202213 452.50186 896 390.903785 896c-61.398081 0-111.196524-70.797787-111.196524-158.195055 0-87.497265 49.798443-158.295052 111.196524-158.295052z m264.89172-10.399675c82.197431-10.699666 135.095777 77.09759 145.495452 143.595512C811.990622 779.003657 758.992279 856.201244 700.794098 869.400831c-58.298178 13.399581-131.095902-79.997499-137.695695-140.895595-7.899753-74.497671 10.599669-148.795349 92.697102-159.395018z m201.393704-390.787784S729.993186 276.71935900000005 655.795505 383.016036c-100.596855 156.795099-243.592385 92.997093-291.390891 13.299584-47.598512-79.697509-121.796193-130.19593-132.295865-143.495514-10.699666-13.199587-153.595199-90.297177-121.896189-231.192773 31.699009-140.795599 143.195524-138.19568 143.195524-138.19568s82.097434-8.099747 177.394454 13.199587c95.297021 21.199337 177.294458-5.299834 177.294458-5.299834s222.593042-74.497671 283.491138 68.997843c60.798099 143.595511-34.398925 217.993186-34.398925 217.993185zM476.301116-35.27088900000001H331.605639c-62.498046 12.499609-87.397268 55.098278-90.597168 62.39805-3.099903 7.399769-20.79935 41.698697-11.399644 99.996874 26.999156 87.397268 103.996749 93.697071 103.99675 93.697071h76.997593v94.69704l65.597949-0.999969 0.099997-349.789066z m269.591573 0.999969H579.297896c-64.597981 16.599481-67.597887 62.498046-67.597887 62.498046V212.42136900000003l67.597887 1.099965V48.02650700000004c4.099872-17.59945 26.099184-20.899347 26.099184-20.899346H673.994936V212.42136900000003h71.897753v-246.692289z m235.692632 491.784627c0 31.799006-26.399175 127.596011-124.396112 127.596011-98.19693 0-111.296521-90.397174-111.29652-154.295176 0-60.998093 5.199837-146.19543 127.096027-143.395518 121.996186 2.599919 108.596605 138.095683 108.596605 170.094683z"  horiz-adv-x="1024" />

    
    <glyph glyph-name="group43" unicode="&#58921;" d="M610.892409 550.182572C611.128433 552.36956 611.249529 554.590994 611.249529 556.840711 611.249529 590.722891 583.782594 618.189824 549.900416 618.189824 516.018238 618.189824 488.551303 590.722891 488.551303 556.840711 488.551303 556.770937 488.55142 556.701189 488.551654 556.631469L488.36115 556.631469 502.186723 264.19998C502.185201 264.042928 502.184441 263.885696 502.184441 263.728285 502.184441 237.375481 523.547611 216.01231 549.900416 216.01231 576.253221 216.01231 597.616391 237.375481 597.616391 263.728285 597.616391 264.162677 597.610587 264.595716 597.599053 265.027324L610.892409 550.182572ZM399.853166 755.058503C481.4487 894.367952 613.916208 894.069156 695.336733 755.058503L1060.013239 132.440079C1141.608773-6.869372 1076.938039-119.801995 915.142835-119.801995L180.047065-119.801995C18.441814-119.801995-46.243866-6.570576 35.176659 132.440079L399.853166 755.058503ZM549.900416 18.331835C583.782594 18.331835 611.249529 45.798769 611.249529 79.680947 611.249529 113.563129 583.782594 141.03006 549.900416 141.03006 516.018238 141.03006 488.551303 113.563129 488.551303 79.680947 488.551303 45.798769 516.018238 18.331835 549.900416 18.331835Z"  horiz-adv-x="1098" />

    
    <glyph glyph-name="tuichu" unicode="&#58960;" d="M780 556H644V688c0 5.523-4.477 10-10 10H230c-29.271 0-53-23.729-53-53v-457c0-29.271 23.729-53 53-53h404c5.523 0 10 4.477 10 10V264h136v-228c0-22.091-17.909-40-40-40H93c-29.271 0-53 23.729-53 53V783c0 29.271 23.729 53 53 53h647c22.091 0 40-17.909 40-40v-240zM166.006 716.188l289.598-77.997C481.798 631.136 500 607.383 500 580.256v-624.232c0-33.137-26.863-60-60-60a60 60 0 0 0-15.604 2.065l-310.402 83.6C70.337-6.553 40 33.035 40 78.248v541.38c0 55.23 44.772 100 100 100a100 100 0 0 0 26.006-3.44zM796.213 471.365l-29.853 29.853c-3.905 3.905-3.905 10.237 0 14.142l56.569 56.569c3.905 3.905 10.237 3.905 14.142 0l148.492-148.492c3.906-3.906 3.906-10.237 0-14.143L837.071 260.802c-3.905-3.905-10.237-3.905-14.142 0L766.36 317.37c-3.905 3.906-3.905 10.237 0 14.143l29.853 29.852H650c-5.523 0-10 4.478-10 10v90c0 5.523 4.477 10 10 10h146.213z"  horiz-adv-x="1024" />

    
    <glyph glyph-name="jifenshangcheng" unicode="&#58907;" d="M1002.117125 538.319448l-0.261507 0.637347-0.109468 0.688432c0 0.156904-0.047436 0.261507-0.047436 0.451251l-0.109468 0.261507c-0.318673 1.37808-0.636131 2.517764-1.16401 3.549195l-91.788904 200.367763-0.052301 0.209205c-11.550088 31.971949-45.24555 56.725092-85.826547 56.777394L199.523418 801.261542c-39.839048 0-71.5726-23.561159-82.908618-55.05753l-0.109468-0.289482-93.309292-203.542335c-0.214071-0.688432-0.532744-1.829332-0.740733-2.96415l-0.109468-0.451251-0.156904-0.39895c-5.563406-15.893535-8.371868-32.209129-8.371868-48.609866 0.052301-56.815099 33.324487-108.949834 86.833653-136.28399l6.194672-3.073618c21.40464-9.697647 46.358474-14.648032 74.224158-14.648032 49.430876 0.209205 126.862445 30.155997 158.542479 65.200347l6.305356 7.022979 6.300491-7.022979c58.548342-44.866061 111.577066-60.611206 160.685619-60.929879 48.951649 0.397734 108.9547 16.063818 157.170481 61.14395l6.305356 6.912295 6.305356-6.912295c31.624084-35.150169 110.91296-65.015468 160.50074-65.015468 30.460074 0.209205 57.375819 6.034118 79.939603 17.608533 53.726886 27.342669 87.051373 79.682961 87.051373 136.686589C1010.279788 506.638197 1007.471326 523.115561 1002.117125 538.319448L1002.117125 538.319448zM900.507727 405.504377c-15.632028-7.920617-34.964074-12.077967-57.375819-12.158244-41.748656 0-112.503895 27.708779-134.5398 60.925014l-0.318673 0.346649-0.214071 0.446386c-1.221176 2.465462-3.282823 6.704306-7.150692 10.595284-4.133025 4.31912-11.706993 11.450351-24.425956 11.450351-9.959154 0-19.280961-5.620573-24.368789-11.497787l-0.209205-0.189745c-3.606362-3.810702-5.725175-7.84034-7.098391-10.485816l-0.214071-0.346649-0.214071-0.343c-21.879001-33.005813-90.358522-62.74948-131.475913-63.038962-41.425117 0.184879-113.107185 31.035389-135.095654 64.170131l-0.209205 0.294347-0.266372 0.451251c-1.273478 2.514115-5.273924 7.327057-8.242939 10.400675l-0.104603 0.156904c-5.406502 5.986682-12.952495 11.554954-23.438311 11.554954-9.957937 0-17.973426-5.169321-22.63433-10.310668l-0.214071-0.212854c-4.128159-4.261953-7.350167-9.764544-8.514176-12.115673l-0.214071-0.503553-0.317457-0.452468c-22.093072-32.982703-84.030056-59.602884-125.565858-59.712352-21.081101 0-39.410906 3.57717-54.457889 10.595284l-0.104603 0-1.857307 1.007105c-39.150616 19.366102-55.499051 46.05318-55.551352 87.407752 0 12.262847 2.171115 24.525693 6.512129 36.417565 0.214071 0.480443 0.428141 1.1409 0.585046 1.881633l0.156904 0.637347 85.288938 183.373467c5.668009 15.231862 11.782404 22.966383 31.861265 22.966383l618.466127 0 0.214071-0.052301c8.950832-0.503553 21.684391-1.77703 30.051394-24.159584l91.203858-184.998458 0.104603-0.636131c0.214071-0.845336 0.532744-1.772165 0.745599-2.622366 4.34223-11.897953 6.565646-24.051332 6.565646-36.237551C947.981559 449.714846 939.078163 425.189153 900.507727 405.504377L900.507727 405.504377zM900.507727 405.504377M820.662997-34.249187 206.308001-34.249187c-37.700773 0-68.374918 24.425956-68.374918 61.794676L137.933082 259.92169c0 20.809864 10.894497 37.681312 31.70436 37.681312 20.81108 0 32.698086-16.866584 32.698086-37.681312l0-231.754666 619.311463 0L821.646993 259.92169c0 20.809864 11.891872 37.681312 32.702952 37.681312s34.692836-16.866584 34.692836-37.681312l0-232.377417C889.042781-9.823231 858.368636-34.249187 820.662997-34.249187L820.662997-34.249187zM820.662997-34.249187M770.60937 585.147418 250.698484 585.147418c-17.165796 0-31.082826 13.91703-31.082826 31.082826 0 17.165796 13.91703 31.082826 31.082826 31.082826l519.915751 0c17.165796 0 31.082826-13.91703 31.082826-31.082826C801.697061 599.064448 787.780031 585.147418 770.60937 585.147418L770.60937 585.147418zM770.60937 585.147418"  horiz-adv-x="1024" />

    
    <glyph glyph-name="yly_jifenshangcheng" unicode="&#58897;" d="M814.270402 364.37519h-11.233046c6.957301-11.953861 11.233046-25.665733 11.233046-40.492617v-242.966964c0-44.730478-36.260899-80.991377-80.989329-80.991377H287.840786c-44.72843 0-80.989329 36.260899-80.989329 80.991377V323.882573c0 14.826883 4.275745 28.538756 11.233046 40.492617h-11.233046c-44.730478 0-80.989329 36.260899-80.98933 80.991377V485.859184c0 44.730478 36.258851 80.991377 80.98933 80.991377H329.274353l-32.541123 32.612795c-38.757131 38.840066-38.757131 101.817204 0 140.658294s101.595021 38.840066 140.350105 0l72.145007-72.302686c0.46382 0.032764 0.85904 0.269282 1.332075 0.269282 0.032764 0 0.060409-0.01843 0.093174-0.01843l72.623162 72.619067c38.931192 38.931192 102.048603 38.931192 140.979794 0 38.931192-38.927096 38.931192-102.046555 0-140.979794l-32.859551-32.857504h122.872382c44.72843 0 80.989329-36.260899 80.989329-80.991377v-40.492617c0.001024-44.731502-36.259875-80.992401-80.988305-80.992401z m-60.741997-323.956293c11.182876 0 20.247332 9.064457 20.247332 20.247332V344.127858c0 11.182876-9.064457 20.247332-20.247332 20.247332H530.808773v-323.956293h222.719632z m-506.182284 20.247332c0-11.182876 9.064457-20.247332 20.247333-20.247332h222.719631V364.37519H267.593454c-11.182876 0-20.247332-9.064457-20.247333-20.247332v-283.461629z m-40.494664 465.687619c-22.364727 0-40.494665-18.129937-40.494665-40.494664v-40.494665c0-22.364727 18.128914-40.494665 40.494665-40.494664h283.461628V526.353848H206.851457z m210.683859 184.065913c-25.025805 25.027853-65.603404 25.027853-90.629209 0-25.027853-25.025805-25.027853-65.601357 0-90.631257l52.941014-52.938967h110.466988v20.624122c0 31.034988 0.163822 50.004511-18.400243 68.5696l-54.37855 54.376502z m276.68146-90.631257c25.027853 25.029901 25.027853 65.605452 0 90.631257-25.025805 25.027853-65.603404 25.027853-90.62921 0l-54.378549-54.376502c-18.643928-18.643928-18.400243-37.044171-18.400244-68.948438v-20.245284h110.466988l52.941015 52.938967zM854.765066 485.859184c0 22.364727-18.128914 40.494665-40.494664 40.494664H530.808773v-121.483993h283.461629c22.364727 0 40.494665 18.129937 40.494664 40.494664v40.494665z"  horiz-adv-x="1024" />

    
    <glyph glyph-name="jifenshangcheng1" unicode="&#58890;" d="M512 237.714286c-242.322286 0-438.857143 65.462857-438.857143 146.285714 0 39.131429 46.445714 74.605714 121.709714 100.937143A46.445714 46.445714 0 0 1 182.857143 457.142857c0-60.635429 147.309714-109.714286 329.142857-109.714286s329.142857 49.078857 329.142857 109.714286a46.372571 46.372571 0 0 1-11.995428 27.794286C904.338286 458.678857 950.857143 423.131429 950.857143 384c0-80.749714-196.534857-146.285714-438.857143-146.285714z m0 256c-242.322286 0-438.857143 65.536-438.857143 146.285714 0 80.822857 196.461714 146.285714 438.857143 146.285714 242.322286 0 438.857143-65.536 438.857143-146.285714s-196.534857-146.285714-438.857143-146.285714zM194.852571 228.937143a46.445714 46.445714 0 0 1-11.995428-27.794286c0-60.635429 147.309714-109.714286 329.142857-109.714286s329.142857 49.078857 329.142857 109.714286a46.372571 46.372571 0 0 1-11.995428 27.794286C904.338286 202.605714 950.857143 167.058286 950.857143 128c0-80.749714-196.534857-146.285714-438.857143-146.285714-242.395429 0-438.857143 65.536-438.857143 146.285714 0 39.131429 46.445714 74.678857 121.709714 100.937143z"  horiz-adv-x="1024" />

    
    <glyph glyph-name="like1" unicode="&#59293;" d="M880.4375 682.85221355C828.0546875 735.4108073 758.4453125 764.32682292 684.35351563 764.32682292c-62.84179688 0-123.22265625-21.09375-172.35351563-59.765625-49.13085938 38.671875-109.59960938 59.765625-172.44140625 59.765625-74.09179688 0-143.70117188-28.91601563-196.08398438-81.47460938C91.00390625 629.9420573 62 559.71744792 62 485.18619792c0-74.70703125 29.00390625-144.93164063 81.65039063-197.66601563l294.96093749-296.10351562c19.6875-19.6875 45.703125-30.49804688 73.47656251-30.49804688 27.68554688 0 53.7890625 10.81054688 73.4765625 30.49804688 29.44335938 29.53125 284.765625 285.8203125 294.87304687 296.015625 52.64648438 52.82226563 81.5625 123.046875 81.5625 197.66601563s-29.00390625 144.84375-81.5625 197.75390624z"  horiz-adv-x="1024" />

    
    <glyph glyph-name="like" unicode="&#58953;" d="M512-32c-28.928 0-57.92 12.672-86.624 41.376L106.272 332C68.064 379.648 32 424.672 32 512c0 141.152 114.848 256 256 256 53.088 0 104-16.096 147.296-46.592 14.432-10.176 17.92-30.144 7.712-44.608-10.176-14.432-30.08-17.92-44.608-7.712C366.016 691.936 327.808 704 288 704c-105.888 0-192-86.112-192-192 0-61.408 20.288-90.112 59.168-138.688l315.584-318.816C486.72 38.528 499.616 32.192 512 32c12.704-0.192 24.928 6.176 41.376 22.624l316.672 319.904C896.064 402.72 928 450.304 928 512c0 105.888-86.112 192-192 192-48.064 0-94.08-17.856-129.536-50.272l-134.08-134.112c-12.512-12.512-32.736-12.512-45.248 0s-12.512 32.736 0 45.248l135.104 135.136C610.56 744.192 671.904 768 736 768c141.152 0 256-114.848 256-256 0-82.368-41.152-144.288-75.68-181.696l-317.568-320.8C569.952-19.328 540.96-32 512-32z"  horiz-adv-x="1024" />

    
    <glyph glyph-name="wentifankui" unicode="&#58892;" d="M124.48 316.864c-16.064 0-24.384 9.344-24.384 25.408V408.64C41.792 457.664 42.88 515.136 42.88 575.424 42.88 736.128 171.264 866.88 331.968 866.88c97.472 0 186.88-48.448 241.152-129.472a29.312 29.312 0 0 0-8.576-40.448 29.44 29.44 0 0 0-40.768 7.936 233.216 233.216 0 0 1-427.264-129.472c0-50.88 20.8-99.2 51.328-139.84l10.496-7.808v-85.504c0-16.064-15.36-25.408-31.488-25.408h-2.368zM562.24 258.56h120.832l-60.416 135.872zM766.784 109.12c-11.2 0-21.824 8.32-26.688 19.2l-31.168 71.936H536.32l-31.104-71.936a29.568 29.568 0 0 0-38.464-15.744 28.608 28.608 0 0 0-14.784 38.016l144.064 324.032a29.184 29.184 0 0 0 53.248-0.192L793.344 150.08a29.184 29.184 0 0 0-26.56-40.96zM272.704 284.672A349.504 349.504 0 0 1 621.824-64.512c32.512 0 69.44 4.544 100.8 13.632l193.408-53.248V83.136c29.184 59.008 59.264 128.448 59.264 201.536C975.296 477.184 814.144 633.728 621.824 633.728A349.504 349.504 0 0 1 272.64 284.672z"  horiz-adv-x="1024" />

    
    <glyph glyph-name="huodaofukuan" unicode="&#58941;" d="M281.467-56.158c15.571 16.884 26.787 29.623 38.659 41.705 78.607 79.44 157.825 158.163 235.636 238.152 17.83 18.593 36.788 39.75 44.62 63.353 5.817 17.246 0.597 46.398-11.404 59.382-11.814 12.984-39.455 19.143-58.06 15.971-19.577-3.35-38.965-18.839-54.479-33.286-40.064-37.314-78.01-76.817-116.728-115.535-9.344-9.273-18.546-18.722-28.007-27.632-11.884-11.333-26.787-20.968-38.789-4.753-4.671 6.346-0.245 27.994 6.85 32.994 62.252 44.62 68.538 107.912 60.846 176.018-3.689 33.298 14.425 69.874-14.424 99.33-23.944-20.922-48.975-40.8-71.513-63.234-34.118-33.954-65.402-70.846-99.94-104.378-28.92-27.864-41.037-59.873-40.545-99.88 0.96-76.818-0.363-153.704-1.698-230.649-0.304-18.487 6.732-47.745-18.675-49.21-33.262-1.638-23.275 30.722-23.45 50.123-0.61 85.597 1.462 171.394 0.842 256.992-0.305 37.747 12.856 66.828 39.21 93.652 64.429 65.6 125.944 134.14 190.678 199.447 30.066 30.358 44.361 63.528 40.966 106.087-1.99 23.954-1.452 48.354 0.246 72.438 4.85 67.918 40.981 106.87 107.283 108.16 117.877 2.2 235.87 2.2 353.76-0.06C889.29 827.74 927.901 787.57 928.323 719.64c1.51-204.316 1.627-408.693 0.363-612.95-0.363-67.86-42.734-113.826-109.822-114.446-126.423-1.218-253.034 1.521-379.457 5.982-29.704 1.1-49.947-7.493-69.464-27.01-21.449-21.52-42.593-45.92-88.477-27.374z m392.807 491.076h0.2c0-21.363-0.096-42.67 0-64.022 0-65.858-0.2-131.67 0.294-197.575 0.2-18.385 3.254-36.978 26.064-40.195 22.704-3.264 38.072 10.458 45.514 29.348 5.662 14.215 5.86 31.259 5.957 46.921 0.39 151.29 0.39 302.628 0.095 453.87-0.095 14.075-0.285 28.842-4.235 42.127-6.547 21.306-23.59 30.869-45.209 29.137-22.81-1.78-27.796-18.585-28.186-38.006-0.19-8.926-0.39-17.785-0.39-26.712-0.104-78.247-0.104-156.542-0.104-234.893z"  horiz-adv-x="1024" />

    
    <glyph glyph-name="qiandao" unicode="&#58905;" d="M949.891 544.364c18.373-51.045 28.584-104.135 28.584-161.3 0-257.276-208.263-465.54-465.538-465.54-257.269 0-465.532 208.264-465.532 465.54 0 257.269 208.264 465.532 465.532 465.532 134.762 0 255.23-57.168 340.986-149.051 8.167 0 14.295 2.044 20.417 8.166 0 0 8.167 8.167 8.167 24.5C790.63 832.262 657.911 893.518 512.937 893.518c-281.77 0-510.455-228.686-510.455-510.455 0-281.775 228.686-510.46 510.455-510.46 281.775 0 510.46 228.685 510.46 510.46 0 63.295-12.25 122.507-32.672 177.635-10.206 6.128-28.583 8.167-40.834-16.334z m0 0M545.61 509.653l-10.212-12.25c63.296-65.34 142.93-110.257 240.936-134.763-10.211-14.288-20.417-28.583-28.583-42.878-40.84 14.295-77.59 30.628-114.346 53.09v-30.628h-251.14v30.628c-36.757-22.462-75.551-42.878-118.43-61.257-8.166 14.295-18.372 26.546-26.545 36.757 102.094 40.832 187.851 93.922 255.231 161.3h53.09zM343.47 636.248h46.96c-8.166-18.378-18.377-34.712-26.544-51.044h155.18v-36.757H341.424c-22.463-34.711-49.001-65.34-73.507-89.84-8.167 10.212-16.335 20.418-26.545 32.673 38.796 38.789 75.552 87.795 102.096 144.968z m-81.675-467.576h316.482c30.628 51.045 57.173 100.045 77.59 149.051l40.839-22.461c-24.506-42.878-49.007-85.757-73.507-126.59h132.718v-38.796H261.795v38.796zM314.88 289.14l34.71 18.373c22.463-34.712 40.84-71.462 59.218-108.218l-36.756-20.417c-16.333 38.794-34.711 75.55-57.172 110.262z m83.717 167.43c-14.295 20.416-30.627 38.794-44.922 57.167l28.59 20.422c16.332-16.34 32.666-32.673 49-53.09l-32.668-24.5z m110.257 12.249c-34.711-32.672-73.508-63.3-118.424-89.84h230.725c-40.834 24.5-77.59 55.129-112.3 89.84z m-40.834-153.14l36.75 10.211c14.295-38.795 26.545-79.634 36.756-118.429l-40.839-12.25c-8.166 42.878-18.378 83.718-32.667 120.468z m110.257 320.57h44.922c-8.166-18.379-16.34-34.713-24.505-51.045h171.518v-36.757H576.238c-10.212-14.288-18.377-28.584-26.545-38.795-14.295 8.167-26.545 14.295-38.794 18.378 28.583 30.629 49 67.38 67.378 108.218z m87.8-185.808c-16.333 18.378-36.756 38.795-61.255 59.212l26.544 24.506c24.5-20.422 44.917-38.795 63.296-57.173l-28.584-26.545z m220.514 185.807c0-10.69 4.404-21.315 11.963-28.875 7.56-7.56 18.186-11.964 28.876-11.964 10.691 0 21.317 4.404 28.876 11.964 7.56 7.56 11.958 18.185 11.958 28.875 0 10.691-4.4 21.317-11.958 28.876-7.56 7.56-18.185 11.957-28.876 11.957-10.69 0-21.315-4.397-28.876-11.957-7.559-7.56-11.963-18.185-11.963-28.876z m0 0"  horiz-adv-x="1024" />

    
    <glyph glyph-name="huiyuan1" unicode="&#58930;" d="M967.83024 51.2l-172.8 329.6c6.4 9.6 12.8 19.2 16 28.8l3.2 3.2c6.4 12.8 12.8 25.6 16 38.4l3.2 9.6c9.6 32 16 64 16 96C846.23024 745.6 695.83024 896 516.63024 896 334.23024 896 187.03024 745.6 187.03024 560c0-60.8 16-121.6 48-176L55.83024 51.2c-6.4-12.8-6.4-25.6 3.2-35.2 6.4-9.6 22.4-16 35.2-12.8l137.6 38.4 51.2-144c3.2-12.8 16-22.4 28.8-22.4h3.2c12.8 0 22.4 6.4 28.8 16l169.6 316.8 169.6-316.8c6.4-9.6 16-16 28.8-16h3.2c12.8 0 25.6 9.6 28.8 22.4l51.2 144 137.6-38.4h9.6c9.6 0 19.2 3.2 25.6 12.8 6.4 9.6 6.4 22.4 0 35.2M276.63024 326.4c44.8-48 105.6-83.2 169.6-96l-128-240-35.2 102.4c-3.2 12.8-16 22.4-32 22.4h-9.6l-92.8-25.6 128 236.8z m492.8 163.2c-3.2-9.6-6.4-16-9.6-25.6-3.2-9.6-6.4-16-9.6-25.6l-3.2-6.4c-19.2-38.4-57.6-96-124.8-131.2l-3.2-3.2c-9.6-3.2-16-6.4-22.4-6.4-19.2-3.2-38.4-3.2-64-3.2h-19.2c-144 0-262.4 121.6-262.4 268.8 0 150.4 118.4 268.8 262.4 268.8 144 0 262.4-121.6 262.4-268.8 3.2-22.4 0-48-6.4-67.2m-70.4-214.4s3.2 3.2 9.6 6.4h3.2v3.2c9.6 9.6 22.4 19.2 35.2 35.2l124.8-233.6-92.8 25.6c-16 3.2-35.2-6.4-38.4-22.4l-35.2-102.4-128 236.8c48 9.6 96 28.8 121.6 51.2z m0 0M651.03024 649.6H564.63024V448h48v67.2h35.2c60.8 0 73.6 38.4 76.8 67.2 0 32-16 64-73.6 67.2M615.83024 608h32c25.6 0 28.8-12.8 32-22.4 0-12.8-3.2-25.6-28.8-25.6h-32V608zM500.63024 649.6h-48l-3.2-6.4c-25.6-70.4-38.4-108.8-44.8-131.2-9.6 25.6-25.6 67.2-48 131.2l-3.2 6.4H302.23024l80-198.4h44.8l76.8 192v-192h48V649.6H500.63024z m0 0"  horiz-adv-x="1024" />

    
    <glyph glyph-name="ziyuan" unicode="&#58895;" d="M885.559269 482.977863C820.60229 561.033163 722.765852 561.835101 716.61766 625.72283c-7.083786 75.382174 124.300393 136.329463 108.127976 168.807953-13.365634 25.795673-91.955559-20.850388-179.634116 17.375323C575.342913 842.513407 567.590845 897.312505 519.073595 895.975942c-45.97778-1.336563-49.185532-51.190377-114.008854-80.193802-83.000585-36.621836-155.976944 10.95982-173.753237-17.375324-18.9792-31.141926 74.580236-80.193802 73.510984-157.981789C304.555176 552.880127 181.992315 537.108679 115.164147 418.020884c-56.002005-100.108596-50.254782-233.230307-2.138501-331.066745C208.723583-107.916799 453.98296-125.02481 496.084705-127.029655c48.383594-2.272158 219.731017-10.425194 341.759252 117.884888 134.725587 141.675716 142.210342 378.6484 47.715312 492.12263z m-253.947039-278.406148H556.230057v-77.654331c0-14.568541-5.212597-25.261048-20.44942-25.92933s-23.122546 10.157882-22.98889 25.662017v77.921644h-75.382173c-16.840698 0-30.874614 4.811628-30.473645 23.389859s14.301228 21.385014 30.072676 20.984045h74.04561V282.493359h-74.580235c-15.771448 0-29.404394 4.00969-29.538051 21.652326s13.365634 22.855233 28.869769 22.587921h80.193802a123.097486 123.097486 0 0 1-13.231978 28.067831c-23.924484 24.860079-48.784563 48.784563-73.644641 72.709047-12.02907 11.628101-22.721577 24.592766-7.752067 39.161306s28.335143 2.940439 39.161306-8.954974c23.122546-25.52836 45.844123-51.324033 73.110016-82.064991 29.805363 32.344833 52.259627 58.541475 77.119706 82.332303a35.819898 35.819898 0 0 0 30.607301 6.549161c14.835853-5.212597 14.434884-21.919639 0-36.087211-24.726422-24.993735-50.522095-49.185532-74.981205-74.580236a133.656336 133.656336 0 0 1-14.969509-26.731267h80.193801c16.306073 0 30.740957-3.475065 30.206332-23.122546s-14.434884-21.251357-29.805363-21.117701h-74.04561v-33.815053h74.04561c15.236822 0 29.53805-2.004845 29.805363-20.716732s-13.766603-24.058141-30.473644-23.790828zM631.61223 248.811962H557.56662V282.493359h74.04561c15.370479 0 29.270738 2.673127 29.805363 21.117701s-13.365634 23.256202-30.206332 23.122546h-80.193801a133.656336 133.656336 0 0 0 14.969509 26.731267c24.45911 25.394704 50.121126 49.452844 74.981205 74.580236 13.365634 14.167572 14.434884 30.874614 0 36.087211a35.819898 35.819898 0 0 1-30.607301-6.549161c-24.860079-23.790828-47.180687-49.98747-77.119706-82.332303-26.731267 30.740957-49.98747 56.670287-73.110016 82.064991-10.826163 12.430039-24.191797 24.325453-39.294963 9.489599s-4.277003-27.666862 7.752068-39.161306c24.860079-23.924484 49.720157-47.848968 73.644641-72.709047A123.097486 123.097486 0 0 0 516.133156 326.59995h-80.193802c-16.03876 0-29.003425-5.346253-28.869768-22.587921s13.365634-21.919639 29.53805-21.652326h74.580235v-33.815053h-74.04561c-15.771448 0-29.671707-3.475065-30.072675-20.984045s13.365634-23.657171 30.473644-23.389859h75.382174v-77.921644c0-15.637791 6.54916-26.731267 22.98889-25.662017S556.230057 112.348843 556.230057 126.917384v77.654331h75.382173c16.573386 0 30.473645 4.277003 30.072676 23.523515s-14.835853 20.850388-30.072676 20.716732z"  horiz-adv-x="1024" />

    
    <glyph glyph-name="liuyan3" unicode="&#58887;" d="M514.4 382.4m-480 0a480 480 0 1 1 960 0 480 480 0 1 1-960 0ZM682.4 585.6H345.59999999c-28 0-50.4-23.2-50.4-52.8v-280.8c0-28.8 22.4-52.8 50.4-52.8h111.20000001l45.6-47.2c3.2-3.2 7.2-4.8 12-4.8 4 0 8.8 1.6 12 4.8l45.6 48h111.2c28 0 50.4 23.2 50.4 52.8v280c0 29.6-23.2 52.8-51.2 52.8zM420.8 375.20000000000005c-13.6 0-25.6 12-25.6 26.4 0 14.4 11.2 26.4 25.6 26.4 13.6 0 25.6-12 25.59999999-26.4s-11.2-26.4-25.59999999-26.4z m101.6 0c-13.6 0-25.6 12-25.60000001 26.4 0 14.4 11.2 26.4 25.60000001 26.4 13.6 0 25.6-12 25.6-26.4s-12-26.4-25.6-26.4z m101.59999999 0c-13.6 0-25.6 12-25.59999999 26.4 0 14.4 11.2 26.4 25.59999999 26.4s25.6-12 25.60000001-26.4-12-26.4-25.60000001-26.4z"  horiz-adv-x="1024" />

    
    <glyph glyph-name="qianbao2" unicode="&#59015;" d="M813.397 554.667L790.187 640a34.133 34.133 0 0 1-41.814 24.064L335.19 554.667zM182.101 554.155h716.8V30.72h-716.8V554.155zM898.901 65.024V341.845c-35.157-79.189-119.978-196.778-314.368-196.778a1215.488 1215.488 0 0 0-402.432 74.922v-153.6a34.133 34.133 0 0 1 34.134-34.133h648.533a34.133 34.133 0 0 1 34.133 32.768zM864.768 554.667H216.235a34.133 34.133 0 0 1-34.134-34.134v-49.493a34.133 34.133 0 0 0 34.134 34.133h648.533a34.133 34.133 0 0 0 34.133-34.133v49.493a34.133 34.133 0 0 1-34.133 34.134zM705.365 384h227.67v-182.443h-227.67a45.568 45.568 0 0 0-45.397 45.91V338.09A45.568 45.568 0 0 0 705.365 384zM928.085 333.824s10.582-90.965-114.688-90.965a478.72 478.72 0 0 0-153.6 22.698v-18.09a45.397 45.397 0 0 1 45.398-45.398h227.84V325.803zM85.333 178.688a147.968 147.968 0 1 1 295.936 0 147.968 147.968 0 1 1-295.936 0zM308.224 306.005a147.627 147.627 0 0 0-202.24-202.24 147.797 147.797 0 1 1 202.24 202.24zM933.035 401.067h-17.067V520.533a51.2 51.2 0 0 1-51.2 51.2h-38.4l-19.797 74.07a51.2 51.2 0 0 1-62.635 36.181l-18.773-5.12-25.43 53.419a51.2 51.2 0 0 1-68.266 24.746L237.739 571.733h-21.504a51.2 51.2 0 0 1-51.2-51.2v-191.829a164.864 164.864 0 0 1 68.266-314.88h631.467a51.2 51.2 0 0 1 51.2 51.2V184.491h17.067a17.067 17.067 0 0 1 17.066 17.066V384a17.067 17.067 0 0 1-17.066 17.067z m-286.72 324.266a17.067 17.067 0 0 0 22.698-8.192l22.528-48.469-155.306-41.643a17.067 17.067 0 1 1 8.874-33.109l207.702 55.637a17.067 17.067 0 0 0 20.821-11.946l17.067-65.195H318.464zM102.4 179.2a130.901 130.901 0 1 0 130.901-130.73A131.072 131.072 0 0 0 102.4 179.2zM881.835 128H570.709a17.067 17.067 0 0 1 0-34.133h311.126v-28.331a17.067 17.067 0 0 0-17.067-17.067H333.312a161.963 161.963 0 0 1 40.79 45.398h46.933a17.067 17.067 0 0 1 0 34.133h-31.062a164.864 164.864 0 0 1-156.672 216.235 159.744 159.744 0 0 1-34.133-3.584V520.533a17.067 17.067 0 0 0 17.067 17.067h648.533a17.067 17.067 0 0 0 17.067-17.067v-119.466h-176.47a62.464 62.464 0 0 1-62.464-62.464v-91.136a62.464 62.464 0 0 1 62.464-62.464h176.47z m34.133 91.136H705.365a28.33 28.33 0 0 0-28.33 28.33v90.625a28.33 28.33 0 0 0 28.33 28.842h210.603zM728.235 275.456h25.6a17.067 17.067 0 0 1 0 34.133h-25.6a17.067 17.067 0 0 1 0-34.133zM500.565 128h-22.698a17.067 17.067 0 0 1 0-34.133h22.698a17.067 17.067 0 0 1 0 34.133z m-258.048-24.576l1.878-5.29a17.067 17.067 0 0 1 16.042-11.265 17.067 17.067 0 0 1 5.803 1.024 17.067 17.067 0 0 1 10.24 21.846l-2.39 6.826a47.616 47.616 0 0 1 16.043 18.262 45.227 45.227 0 0 1 1.536 34.133 45.739 45.739 0 0 1-58.88 27.307l-10.922-3.414a11.435 11.435 0 0 0-7.68 20.48l21.504 7.851a17.067 17.067 0 1 1 32.085 11.605 34.133 34.133 0 0 1-17.067 19.286 34.133 34.133 0 0 1-26.112 1.194l-2.73 6.144a17.067 17.067 0 1 1-32.086-11.605l2.56-6.997a45.397 45.397 0 0 1 41.302-80.043l10.581 3.925a11.435 11.435 0 0 0 14.677-6.826 11.093 11.093 0 0 0 0-8.704 10.581 10.581 0 0 0-6.314-5.803l-21.504-7.85a17.067 17.067 0 1 1-31.915-11.777 34.133 34.133 0 0 1 31.915-22.357 34.133 34.133 0 0 1 11.776 2.048z"  horiz-adv-x="1024" />

    
    <glyph glyph-name="dingdan" unicode="&#58983;" d="M230.456889 24.576c-38.229333 147.228444-46.307556 430.193778-47.104 614.4H142.279111L102.001778-43.576889 824.832-128V91.704889c-241.208889-31.857778-349.184-42.097778-594.375111-67.128889zM280.632889 515.413333a20.593778 20.593778 0 0 0-1.592889 41.073778l335.985778 27.420445a20.593778 20.593778 0 1 0 3.299555-40.96l-335.985777-27.420445zM309.76 398.904889a20.593778 20.593778 0 0 0-1.592889 41.073778l406.414222 33.223111a20.593778 20.593778 0 1 0 3.299556-40.96l-406.414222-33.336889zM336.497778 267.377778a20.593778 20.593778 0 0 0-1.592889 41.073778L670.890667 335.872a20.593778 20.593778 0 1 0 3.299555-40.96l-335.985778-27.534222zM846.449778 796.558222H642.56a123.448889 123.448889 0 1 0-236.999111 0H201.557333s-13.312-534.755556 43.690667-754.346666c268.174222 27.420444 364.088889 36.295111 676.750222 78.848-75.548444 198.997333-75.548444 675.498667-75.548444 675.498666zM586.922667 825.571556v-4.892445a63.032889 63.032889 0 0 0-126.065778 0v4.892445a89.201778 89.201778 0 1 1 125.155555 0zM524.117333 841.045333m-54.954666 0a54.954667 54.954667 0 1 1 109.909333 0 54.954667 54.954667 0 1 1-109.909333 0ZM561.095111 515.413333H306.801778a20.593778 20.593778 0 0 0 0 41.187556h253.724444a20.593778 20.593778 0 0 0 0-41.187556zM679.765333 399.018667H324.892444a20.593778 20.593778 0 0 0 0 41.187555h354.872889a20.593778 20.593778 0 0 0 0-41.187555zM578.616889 281.6h-253.724445a20.593778 20.593778 0 0 0 0 41.187556h253.724445a20.593778 20.593778 0 0 0 0-41.187556z"  horiz-adv-x="1024" />

    
    <glyph glyph-name="fenxiao1" unicode="&#58927;" d="M381.952 356.86400000000003h-31.744v16.384h31.744c14.848 0 26.112 8.704 26.112 19.968s-11.776 19.968-26.112 19.968h-17.408l38.4 66.048c4.096 6.656 5.12 14.848 3.584 21.504-1.024 5.12-4.608 9.728-9.216 12.288-10.24 5.632-25.088 0-31.744-12.288L338.432 450.56c-9.728-17.92-10.24-19.456-10.24-19.456l-0.512-1.024c-12.8 25.088-36.352 68.608-37.376 71.168-6.656 12.288-22.016 17.92-32.256 11.776-4.608-3.072-8.192-7.68-9.728-12.8-2.048-6.656-0.512-14.336 3.072-20.992l35.84-61.952 2.048-3.584h-18.944c-14.848 0-26.112-8.704-26.112-19.968s11.776-19.968 26.112-19.968h33.792v-16.384h-33.792c-14.848 0-26.112-8.704-26.112-20.48 0-10.752 10.24-18.944 24.576-19.968h35.84v-21.504c0-14.336 10.24-26.112 23.04-26.112s23.04 11.264 23.04 25.6V317.44000000000005h36.864c12.8 2.048 20.992 9.728 20.992 19.456-0.512 11.264-11.776 19.968-26.624 19.968zM817.152 541.696c82.944 0 150.528 67.584 150.528 150.528s-67.584 150.528-150.528 150.528-150.528-67.584-150.528-150.528c0-13.312 1.536-25.6 4.608-37.888l-138.752-92.16c-5.632 6.656-11.264 13.312-17.92 19.456-50.688 50.688-117.76 78.336-189.44 78.336s-138.752-27.648-189.44-78.336c-50.688-50.688-78.336-117.76-78.336-189.44s27.648-138.752 78.336-189.44c50.688-50.688 117.76-78.336 189.44-78.336 71.168 0 138.24 27.648 188.928 77.824l146.944-102.4c-6.144-14.336-9.216-30.72-9.216-47.104 0-23.04 6.144-44.544 17.408-62.976h-139.776c-16.384 0-30.208-13.312-30.208-30.208 0-16.384 13.312-30.208 30.208-30.208h247.296c67.584 1.024 121.856 55.808 121.856 123.392 0 68.096-55.296 123.392-123.392 123.392-29.696 0-56.832-10.24-77.824-27.648l-145.408 101.376c26.624 42.496 40.96 91.648 40.96 142.848 0 41.984-9.728 82.944-27.648 119.296l133.12 88.576c28.16-35.84 70.656-58.88 118.784-58.88z m0 248.832c54.272 0 98.304-44.032 98.304-98.304S871.424 593.9200000000001 817.152 593.9200000000001s-98.304 44.032-98.304 98.304 44.032 98.304 98.304 98.304z m-41.472-674.816c34.816 0 62.976-28.16 62.976-62.976s-28.16-62.976-62.976-62.976-62.976 28.16-62.976 62.976 28.16 62.976 62.976 62.976zM326.144 184.32000000000005c-114.688 0-207.872 93.184-207.872 207.872 0 114.688 93.184 207.872 207.872 207.872s207.872-93.184 207.872-207.872C533.504 277.504 440.32 184.32000000000005 326.144 184.32000000000005z"  horiz-adv-x="1024" />

    
    <glyph glyph-name="fapiao1" unicode="&#59219;" d="M1012.981843 580.088769a34.431742 34.431742 0 0 0-34.431742-34.431741h-67.141897v106.049764h11.018158a34.431742 34.431742 0 0 1 0 68.863484H160.968393a34.431742 34.431742 0 0 1 0-68.863484H172.158709v-106.566241H105.533289a34.431742 34.431742 0 0 0-34.431742 34.431742V792.704775a34.431742 34.431742 0 0 0 34.431742 34.431741h872.156018a34.431742 34.431742 0 0 0 34.431742-34.431741v-212.616006zM1011.260256 580.088769a34.431742 34.431742 0 0 0-34.431742-34.431741h-67.141897v106.049764h11.018158a34.431742 34.431742 0 0 1 0 68.863484H159.246806a34.431742 34.431742 0 0 1 0-68.863484h11.018157v-106.566241H103.295225a34.431742 34.431742 0 0 0-34.431741 34.431742V792.704775a34.431742 34.431742 0 0 0 34.431741 34.431741h872.844654a34.431742 34.431742 0 0 0 34.431742-34.431741v-212.616006z m-170.437122-566.57431l-132.734365 104.328177-168.026899-127.397444-167.338265 126.708809-133.595158-97.441829V651.706792h602.55548v-638.192333zM976.139879 896H103.295225a103.295225 103.295225 0 0 1-103.295225-103.295225v-212.616006a103.295225 103.295225 0 0 1 103.295225-103.295225h66.969738v-592.742434l201.770007 147.195696 168.0269-127.225286 167.338264 126.70881 202.458642-158.73033v604.277068h66.281103a103.295225 103.295225 0 0 1 103.295225 103.295225V792.704775a103.295225 103.295225 0 0 1-103.295225 103.295225z m0 0M302.482851 435.475454h475.158037v68.863483h-475.158037z m0-167.682582h475.158037v68.863483h-475.158037z m0 0"  horiz-adv-x="1079" />

    
    <glyph glyph-name="dizhi1" unicode="&#59149;" d="M234.798933 238.933333h554.423467c40.157867 0 72.712533-30.562133 72.712533-68.266666l90.88-200.533334c0-37.704533-32.554667-68.266667-72.712533-68.266666H143.9104c-40.157867 0-72.712533 30.562133-72.712533 68.266666l90.88 200.533334c0 37.704533 32.5632 68.266667 72.721066 68.266666zM788.0192 505.821867h4.036267l-279.684267-484.420267-279.68 484.420267h5.277867c-8.533333 18.773333-13.175467 42.4576-13.175467 72.311466a288 288 0 0 0 576 0c0.004267-29.866667-4.4672-53.533867-12.7744-72.311466zM512.802133 608m-125.866666 0a125.866667 125.866667 0 1 1 251.733333 0 125.866667 125.866667 0 1 1-251.733333 0Z"  horiz-adv-x="1024" />

    
    <glyph glyph-name="kaquan1" unicode="&#59435;" d="M828.928 646.144H195.072V705.536c0 20.992 16.896 37.888 37.888 37.888h558.08c20.992 0 37.888-16.896 37.888-37.888v-59.392zM303.104 432.64c0-9.216-7.168-16.384-16.384-16.384-9.216 0-16.384 7.168-16.384 16.384V506.88c0 9.216 7.168 16.384 16.384 16.384 9.216 0 16.384-7.168 16.384-16.384v-74.24zM303.104 284.16c0-9.216-7.168-16.384-16.384-16.384-9.216 0-16.384 7.168-16.384 16.384V358.4c0 9.216 7.168 16.384 16.384 16.384 9.216 0 16.384-7.168 16.384-16.384v-74.24zM303.104 135.168c0-9.216-7.168-16.384-16.384-16.384-9.216 0-16.384 7.168-16.384 16.384v74.24c0 9.216 7.168 16.384 16.384 16.384 9.216 0 16.384-7.168 16.384-16.384v-74.24zM934.4 408.064h3.584V539.648c0 45.568-36.864 82.944-82.944 82.944H303.104v-40.96c0-9.216-7.168-16.384-16.384-16.384-9.216 0-16.384 7.168-16.384 16.384v40.96H168.96c-45.568 0-82.944-36.864-82.944-82.944v-131.584h3.584c48.128 0 87.04-38.912 87.04-87.04s-38.912-87.04-87.04-87.04h-3.584V102.4c0-45.568 36.864-82.944 82.944-82.944h101.376v40.96c0 9.216 7.168 16.384 16.384 16.384 9.216 0 16.384-7.168 16.384-16.384v-40.96H855.04c45.568 0 82.944 36.864 82.944 82.944v131.584h-3.584c-48.128 0-87.04 38.912-87.04 87.04s38.912 87.552 87.04 87.04zM692.736 287.744h-69.632v26.112h69.632c16.384 0 29.696 12.8 29.696 29.184s-13.312 29.184-29.696 29.184h-30.208l24.064 68.096c4.608 13.312-4.096 27.648-19.968 31.744-15.872 4.096-32.256-3.584-36.864-16.896l-29.696-82.944H593.92l-29.184 82.944c-4.608 13.312-21.504 20.992-36.864 16.896-15.872-4.096-24.576-17.92-19.968-31.744l24.064-68.096h-34.304c-16.384 0-29.696-12.8-29.696-29.184 0-15.872 13.312-29.184 29.696-29.184h66.048v-26.112H497.664c-16.384 0-29.696-12.8-29.696-29.184 0-15.872 13.312-29.184 29.696-29.184h66.048v-73.216c0-15.872 13.312-29.184 29.696-29.184 16.384 0 29.696 12.8 29.696 29.184v73.216h69.632c16.384 0 29.696 12.8 29.696 29.184s-13.312 29.696-29.696 29.184M286.208 225.792c-9.216 0-16.384-7.168-16.384-16.384v-74.24c0-9.216 7.168-16.384 16.384-16.384 9.216 0 16.384 7.168 16.384 16.384v74.24c0.512 9.216-7.168 16.384-16.384 16.384M286.208 374.784c-9.216 0-16.384-7.168-16.384-16.384v-74.24c0-9.216 7.168-16.384 16.384-16.384 9.216 0 16.384 7.168 16.384 16.384V358.4c0.512 8.704-7.168 16.384-16.384 16.384M286.208 523.264c-9.216 0-16.384-7.168-16.384-16.384v-74.24c0-9.216 7.168-16.384 16.384-16.384 9.216 0 16.384 7.168 16.384 16.384V506.88c0.512 9.216-7.168 16.384-16.384 16.384M286.208 564.736c9.216 0 16.384 7.168 16.384 16.384v40.96h-32.768v-40.96c0-8.704 7.68-16.384 16.384-16.384M303.104 60.928c0 9.216-7.168 16.384-16.384 16.384-9.216 0-16.384-7.168-16.384-16.384v-40.96h32.768v40.96z"  horiz-adv-x="1024" />

    
    <glyph glyph-name="shoucang11" unicode="&#59029;" d="M763.2-26.399999999999977c-10.4 0-23.2 3.2-34.4 8.8l-134.4 67.2-135.2-67.2c-10.4-5.6-22.4-8.8-33.6-8.8-16 0-31.2 4.8-43.2 14.4-22.4 16.8-33.6 45.6-28.8 72.8l28 142.4-105.6 99.2c-19.2 19.2-27.2 48.8-20 75.2v0.8c8.8 28 32 47.2 60 51.2L462.4 456l66.4 134.4c12.8 24.8 38.4 41.6 65.6 41.6 13.6 0 28-4 40-12s21.6-18.4 26.4-31.2L726.4 456l147.2-25.6c27.2-4 51.2-24.8 58.4-51.2 8.8-27.2 1.6-56-18.4-76l-0.8-0.8L808 203.20000000000005l26.4-143.2c4.8-28-6.4-55.2-28.8-72-10.4-8.8-26.4-14.4-42.4-14.4zM709.6-8c-12.8 0-28 4-41.6 10.4L504 84.79999999999995l-164.8-81.6c-12.8-6.4-27.2-10.4-41.6-10.4-19.2 0-37.6 6.4-52.8 16.8h-0.8c-27.2 20.8-41.6 56-35.2 88.8L242.4 272 116 392.8c-24 24-32.8 59.2-24 91.2v0.8c11.2 33.6 38.4 57.6 72.8 62.4l178.4 32.8L424 744c15.2 30.4 47.2 50.4 80.8 50.4 16.8 0 33.6-4.8 48-14.4 14.4-9.6 26.4-22.4 32.8-37.6l80-161.6 179.2-31.2c33.6-4.8 62.4-30.4 71.2-62.4 10.4-32.8 1.6-68-22.4-92l-0.8-0.8-128-120.8 32-174.4c5.6-33.6-7.2-68-35.2-88-13.6-12-32.8-19.2-52-19.2z m-11.2 72.8c5.6-2.4 9.6-3.2 11.2-3.2 4 0 7.2 0.8 9.6 3.2l0.8 0.8c7.2 5.6 10.4 12.8 8.8 20.8l-39.2 210.4 13.6 13.6 141.6 132.8c5.6 6.4 8 14.4 4.8 22.4v1.6c-1.6 6.4-8 12.8-15.2 13.6h-1.6l-214.4 37.6-96 195.2v0.8c-2.4 5.6-10.4 10.4-17.6 10.4-7.2 0-14.4-4.8-18.4-12l-96-193.6L175.2 480c-10.4-1.6-14.4-8.8-16.8-14.4-1.6-8 0.8-17.6 6.4-23.2L320.8 296l-6.4-19.2-36.8-190.4c-1.6-7.2 2.4-16 8.8-20.8 3.2-2.4 7.2-4 11.2-4 3.2 0 6.4 0.8 9.6 2.4l0.8 0.8L504 161.60000000000002l194.4-96.8z"  horiz-adv-x="1024" />

    
    <glyph glyph-name="daifahuo" unicode="&#58949;" d="M529.331562 879.642469l410.298828-204.329992A39.718807 39.718807 0 0 0 960.363329 640.401981v-513.15956c0-16.651286-9.80215-30.287716-24.520836-35.760841L529.331562-112.04445c-10.930789-5.442203-24.02609-4.916536-34.384829 0L85.173572 93.39872a37.569755 37.569755 0 0 0-21.258606 33.82824H63.636671V640.401981c0 16.620365 10.637033 30.287716 24.830052 36.255586L494.946733 879.642469c11.456456 5.720498 24.02609 5.720498 34.384829 0z m-153.340259-144.852277l341.049886-170.795507 136.951805 67.934775L512.401981 802.709506l-136.410678-67.919314zM170.85735 631.92946l341.544631-170.780046 153.340258 77.180336-341.297258 170.532673-153.587631-76.932963z m-30.009422-36.286508v-444.127068l348.084552-174.87716V421.322382L140.847928 595.642952zM535.345815-23.376736l348.64114 174.877159V595.642952c-116.218867-57.823409-232.437734-116.218867-348.64114-174.32057v-444.699118z"  horiz-adv-x="1024" />

    
    <glyph glyph-name="qianbao" unicode="&#58995;" d="M919.608889 295.253333c-32.142222 113.777778-103.537778 187.164444-209.066667 246.613334-12.231111 6.826667-25.031111 12.515556-37.546666 18.773333l6.257777 5.688889a188.017778 188.017778 0 0 1 52.053334 70.826667A98.702222 98.702222 0 0 1 739.555556 668.444444c0 43.235556-4.551111 65.706667-28.444445 85.333334-42.097778 34.417778-50.915556 39.537778-102.968889 10.524444-2.56 0-4.835556-1.991111-7.111111 0-64 69.404444-125.44 53.76-180.053333 0a5.404444 5.404444 0 0 0-7.111111 0A134.542222 134.542222 0 0 1 341.333333 782.222222a80.213333 80.213333 0 0 1-56.888889-85.333333 190.008889 190.008889 0 0 1 45.511112-118.613333c5.688889-6.257778 11.946667-11.946667 17.92-18.204445l-4.551112-2.275555A415.573333 415.573333 0 0 1 85.333333 213.333333a441.742222 441.742222 0 0 1 18.773334-135.964444A161.28 161.28 0 0 1 256-42.666667h512a155.591111 155.591111 0 0 1 128.568889 71.964445C912.213333 50.915556 938.666667 72.817778 938.666667 99.555556a659.057778 659.057778 0 0 1-19.057778 195.697777zM881.777778 128a145.635556 145.635556 0 0 0-28.444445-56.888889 133.973333 133.973333 0 0 0-113.777777-56.888889c-142.222222 0-312.888889-3.982222-455.111112 0-60.586667 1.706667-98.986667 28.444444-113.777777 85.333334-9.386667 36.693333-31.004444 76.231111-28.444445 113.777777 9.386667 135.68 149.902222 277.333333 268.8 332.231111 0 0-34.133333 31.573333-38.968889 36.977778a142.222222 142.222222 0 0 0-42.097777 82.488889A51.484444 51.484444 0 0 0 376.604444 725.333333 417.848889 417.848889 0 0 0 426.666667 725.333333c51.484444 48.071111 135.964444 40.96 170.666666 0 12.231111-14.222222 36.124444 33.28 80.782223-16.497777a53.191111 53.191111 0 0 0 15.36-56.888889 248.035556 248.035556 0 0 0-28.444445-50.346667 417.28 417.28 0 0 0-53.191111-56.888889s56.888889-26.168889 64.853333-33.28c85.333333-65.137778 150.186667-113.777778 176.64-212.48 13.937778-52.622222 36.693333-118.044444 28.444445-170.951111zM587.946667 445.44l-16.497778-16.497778-56.888889-55.466666L455.111111 432.924444l-16.497778 16.497778a28.444444 28.444444 0 0 1-38.968889 0 28.444444 28.444444 0 0 1 0-38.684444l13.084445-12.8 3.697778-3.697778 14.791111-14.506667 23.893333-24.177777 28.444445-28.444445v-28.444444h-85.333334v-56.888889h56.888889l5.973333 3.697778 22.471112-3.697778v-28.444445h-85.333334v-56.888889h85.333334v-85.333333h56.888888v85.333333h85.333334v56.888889h-85.333334v28.444445h85.333334v56.888889h-85.333334l-1.991111 21.617777 55.182223 54.044445h1.422222l14.791111 14.506667 3.697778 3.697777 12.231111 14.222223a21.902222 21.902222 0 0 1 0 34.133333 28.444444 28.444444 0 0 1-37.831111 4.551111zM455.111111 156.444444z"  horiz-adv-x="1024" />

    
    <glyph glyph-name="qianbao1" unicode="&#59312;" d="M848 440H680c-61.6 0-112-50.4-112-112s50.4-112 112-112h168c61.6 0 112 50.4 112 112s-50.4 112-112 112z m0-168H680c-28 0-56 28-56 56s28 56 56 56h168c28 0 56-28 56-56s-28-56-56-56zM708 328m-28 0a28 28 0 1 1 56 0 28 28 0 1 1-56 0ZM484 328c16.8 0 28 11.2 28 28s-11.2 28-28 28h-50.4l39.2 67.2c5.6 11.2 5.6 28-11.2 39.2-11.2 11.2-28 5.6-39.2-11.2L372 384l-56 95.2c-5.6 16.8-22.4 22.4-39.2 11.2-11.2-5.6-16.8-22.4-5.6-39.2l33.6-67.2H260c-16.8 0-28-11.2-28-28s11.2-28 28-28h84v-56h-84c-16.8 0-28-11.2-28-28s11.2-28 28-28h84v-84c0-16.8 11.2-28 28-28s28 11.2 28 28v84h84c16.8 0 28 11.2 28 28s-11.2 28-28 28h-84v56h84zM876 160c-16.8 0-28-11.2-28-28v-56c0-16.8-11.2-28-28-28H148c-16.8 0-28 11.2-28 28V580c0 16.8 11.2 28 28 28h672c16.8 0 28-11.2 28-28v-56c0-16.8 11.2-28 28-28s28 11.2 28 28v84c0 33.6-22.4 56-56 56 0 61.6-50.4 112-112 112H176c-61.6 0-112-50.4-112-112v-616c0-33.6 22.4-56 56-56h728c33.6 0 56 22.4 56 56v84c0 16.8-11.2 28-28 28zM120 664c0 28 28 56 56 56h560c28 0 56-28 56-56H120z"  horiz-adv-x="1024" />

    
    <glyph glyph-name="dingdan1" unicode="&#58883;" d="M1024-62.836364l-37.236364-18.618181v46.545454l37.236364-27.927273z m-37.236364 912.290909c0 13.963636 9.309091 23.272727 23.272728 23.272728s23.272727-9.309091 23.272727-23.272728v-930.90909c0-18.618182-23.272727-27.927273-37.236364-18.618182l-190.836363 144.290909-190.836364-144.290909c-9.309091-4.654545-18.618182-4.654545-27.927273 0l-190.836363 144.290909-190.836364-144.290909c-13.963636-13.963636-37.236364 0-37.236364 18.618182v930.90909c0 13.963636 9.309091 23.272727 23.272728 23.272728s23.272727-9.309091 23.272727-23.272728v-884.363636l167.563636 125.672727c9.309091 4.654545 18.618182 4.654545 27.927273 0l190.836364-144.290909 190.836363 144.290909c9.309091 4.654545 18.618182 4.654545 27.927273 0l167.563636-125.672727v884.363636zM200.145455 612.072727v-46.545454h-23.272728c-83.781818 0-148.945455 69.818182-148.945454 153.6s65.163636 153.6 148.945454 153.6h861.090909c83.781818 0 148.945455-69.818182 148.945455-153.6s-65.163636-153.6-148.945455-153.6h-23.272727v46.545454h23.272727c55.854545 0 102.4 46.545455 102.4 107.054546s-46.545455 107.054545-102.4 107.054545h-861.090909c-55.854545 0-102.4-46.545455-102.4-107.054545s46.545455-107.054545 102.4-107.054546h23.272728zM358.4 593.454545c-13.963636 0-23.272727 9.309091-23.272727 23.272728s9.309091 23.272727 23.272727 23.272727h512c13.963636 0 23.272727-9.309091 23.272727-23.272727s-9.309091-23.272727-23.272727-23.272728h-512zM358.4 435.2c-13.963636 0-23.272727 9.309091-23.272727 23.272727s9.309091 23.272727 23.272727 23.272728h325.818182c13.963636 0 23.272727-9.309091 23.272727-23.272728s-9.309091-23.272727-23.272727-23.272727h-325.818182z"  horiz-adv-x="1210" />

    
    <glyph glyph-name="daipingjia" unicode="&#58893;" d="M901.468 672.42H274.452A122.716 122.716 0 0 1 151.9 549.868V141.23a122.675 122.675 0 0 1 122.552-122.532h174.592l100.598-88.289a57.098 57.098 0 0 1 37.827-14.234c13.865 0 27.73 4.997 38.666 14.992l95.887 87.51H901.49A122.675 122.675 0 0 1 1024.02 141.21V549.868A122.737 122.737 0 0 1 901.468 672.42z m81.572-531.19a81.674 81.674 0 0 0-81.572-81.572H714.076c-5.1 0-10.035-1.925-13.803-5.366l-101.745-92.856a16.404 16.404 0 0 0-21.873-0.225l-106.373 93.368a20.521 20.521 0 0 1-13.517 5.08H274.473a81.674 81.674 0 0 0-81.592 81.571V549.868a81.674 81.674 0 0 0 81.592 81.592h627.016a81.674 81.674 0 0 0 81.571-81.592V141.23zM123.392 814.08h632.177a82.534 82.534 0 0 0 82.411-82.432 20.48 20.48 0 1 1 40.96 0A123.515 123.515 0 0 1 755.57 855.04H123.392A123.535 123.535 0 0 1 0 731.648v-411.996C0 265.564 36.27 216.924 88.228 201.4a20.521 20.521 0 0 1 25.497 13.742 20.521 20.521 0 0 1-13.762 25.498 83.067 83.067 0 0 0-59.003 79.012V731.648a82.534 82.534 0 0 0 82.432 82.432zM371.2 399.36c-32.46 0-58.88-26.42-58.88-58.88s26.42-58.88 58.88-58.88 58.88 26.42 58.88 58.88-26.42 58.88-58.88 58.88z m0-76.8c-9.871 0-17.92 8.049-17.92 17.92s8.049 17.92 17.92 17.92 17.92-8.049 17.92-17.92-8.049-17.92-17.92-17.92z m218.46 76.8c-32.46 0-58.88-26.42-58.88-58.88s26.42-58.88 58.88-58.88 58.88 26.42 58.88 58.88-26.419 58.88-58.88 58.88z m0-76.8c-9.871 0-17.92 8.049-17.92 17.92s8.049 17.92 17.92 17.92 17.92-8.049 17.92-17.92-8.048-17.92-17.92-17.92z m218.46 76.8c-32.46 0-58.88-26.42-58.88-58.88s26.42-58.88 58.88-58.88S867 308.02 867 340.48s-26.419 58.88-58.88 58.88z m0-76.8c-9.871 0-17.92 8.049-17.92 17.92s8.049 17.92 17.92 17.92 17.92-8.049 17.92-17.92-8.048-17.92-17.92-17.92z"  horiz-adv-x="1024" />

    
    <glyph glyph-name="daizhifu" unicode="&#58937;" d="M22.661697 661.639493A148.61914 148.61914 0 0 1 128.588946 613.490743h706.18166V706.578325a128.396665 128.396665 0 0 1-128.396665 131.606582h-121.976832v-44.938832H706.373941a86.346758 86.346758 0 0 0 86.667749-86.66775v-89.877665H131.798863A86.346758 86.346758 0 0 0 45.131114 703.368409v3.209916a86.346758 86.346758 0 0 0 86.667749 86.66775h293.386381V838.184907H131.798863A132.248565 132.248565 0 0 1 0.192281 706.578325V703.368409a132.248565 132.248565 0 0 1 22.469416-73.1861zM116.712255 614.77471L526.618609 851.024574h6.419833a17.654541 17.654541 0 0 0 16.049584-9.62975l131.28559-227.904081h53.9266L590.816942 863.864241a64.198333 64.198333 0 0 1-57.7785 32.099166 61.951391 61.951391 0 0 1-32.099166-9.62975L58.612764 634.034209a137.06344 137.06344 0 0 1 58.099491-19.259499zM45.131114 613.490743a155.359965 155.359965 0 0 1 83.457832-22.469416h770.379993a92.445599 92.445599 0 0 0 83.457833-96.2975v-481.487495a90.519649 90.519649 0 0 0-83.457833-96.297499H128.588946a92.445599 92.445599 0 0 0-83.457832 96.297499V613.490743M16.241864 712.998159H0.192281v-699.761827a134.174515 134.174515 0 0 1 128.396665-141.236332h770.379993a136.100465 136.100465 0 0 1 128.396665 141.236332v481.487495a134.174515 134.174515 0 0 1-128.396665 141.236332H128.588946A128.396665 128.396665 0 0 0 16.241864 712.998159zM854.030106 382.376745a96.297499 96.297499 0 0 1 0-192.594998h160.495832v192.594998z m115.556999-147.656165h-115.556999a51.358666 51.358666 0 0 0 0 102.717332h115.556999zM854.030106 318.178412h64.198333v-64.198332h-64.198333zM918.228439 318.178412h-64.198333v-64.198332h64.198333v64.198332z"  horiz-adv-x="1027" />

    
    <glyph glyph-name="daishouhuo" unicode="&#58884;" d="M929.28 586.24l-260.096 128-134.144-761.856c4.096 0.512 8.192 2.048 12.288 4.096l382.464 196.096c13.824 7.168 22.528 20.992 22.528 36.864v360.448c-0.512 15.36-9.216 29.184-23.04 36.352zM517.12 771.584l-125.44-60.928c-33.792 34.304-80.896 55.808-132.608 55.808-49.664 0-96.256-19.456-131.584-54.272-35.328-35.328-54.784-81.92-54.784-131.584s19.456-96.256 54.272-131.584l0.512-0.512v-262.144c0-14.848 8.192-29.184 21.504-36.352l359.936-193.536c11.776-6.656 26.112-6.656 38.4-0.512l382.464 196.096c13.824 7.168 22.528 20.992 22.528 36.864v360.448c0 15.36-8.704 29.696-22.528 36.352L552.96 771.072c-11.776 6.144-25.088 6.144-35.84 0.512z m25.088-31.232l354.816-171.008-157.696-76.8-305.152 147.456c-5.632 15.872-12.8 30.72-22.528 44.544l114.688 55.808c5.632 2.56 11.264 2.56 15.872 0z m-440.832-159.744c0 86.528 70.656 157.184 157.184 157.184 41.984 0 81.408-16.384 111.104-46.08 29.696-29.696 46.08-69.12 46.08-111.104s-16.384-81.408-46.08-111.104c-29.696-29.696-69.12-46.08-111.104-46.08-87.04 0-157.184 70.656-157.184 157.184z m415.232-592.896l-347.136 188.416c-5.632 3.072-9.216 9.216-9.216 15.872v230.4c29.184-17.92 62.976-28.16 97.792-28.16 46.592 0 89.088 16.896 121.856 45.568l136.704-67.584v-384.512z m20.48 406.528l-135.68 67.072c27.136 32.256 43.008 73.728 43.008 118.784 0 7.68-0.512 14.848-1.536 22.528l259.072-128-164.864-80.384z m12.8-401.408v371.712l372.224 182.784v-350.208c0-6.656-3.584-12.8-9.728-15.872l-362.496-188.416zM258.56 565.76h76.288c8.192 0 14.336 6.656 14.336 14.336 0 8.192-6.656 14.336-14.336 14.336h-61.952v96.768c0 4.096-1.536 7.68-4.096 10.24s-6.144 4.096-10.24 4.096c-8.192 0-14.336-6.656-14.336-14.336v-111.104c0-4.096 1.536-7.68 4.096-10.24s6.144-4.096 10.24-4.096z"  horiz-adv-x="1024" />

    
    <glyph glyph-name="shoucang" unicode="&#58952;" d="M773.461-109.431c-14.404 0-30.583 4.13-45.602 11.639L513.57 9.387 297.95-97.621c-13.653-7.27-29.287-11.094-45.227-11.094a96.256 96.256 0 0 0-57.549 18.842c-30.173 22.63-45.636 61.85-38.502 97.553l44.1 228.762-169.028 157.56A104.073 104.073 0 0 0 5.461 494.66l0.342 1.16c12.288 36.83 42.769 62.635 79.735 67.585l234.837 42.7L425.78 820.19c16.93 33.894 51.37 55.671 87.791 55.671 37.99 0 73.319-22.596 88.132-56.286l105.063-213.401 234.871-41.063a95.676 95.676 0 0 0 78.268-68.369 98.987 98.987 0 0 0-24.474-101l-0.58-0.58-168.55-158.72 42.598-229.172c6.86-36.659-7.714-73.66-38.059-96.733a90.283 90.283 0 0 0-57.378-19.968zM513.673 71.714l239.104-119.569c7.031-3.55 15.12-5.768 20.65-5.768 8.534 0 16.452 2.628 22.255 7.475l1.092 0.887c13.585 10.206 20.207 26.385 17.238 42.257l-48.128 259.209L956.21 435.439c11.674 11.844 15.667 28.808 10.48 44.407l-0.513 1.639a39.185 39.185 0 0 1-32.529 28.365l-1.092 0.17-263.339 46.046L550.708 796.81c-5.77 13.448-21.368 23.21-37.138 23.21-15.496 0-30.31-9.694-37.82-24.678L357.99 556.169 93.252 508.075c-16.077-2.014-28.57-12.698-34.338-29.355-4.096-15.223 0.751-33.553 11.947-44.988l190.532-177.561-50.005-259.345c-3.004-14.985 4.096-32.256 17.237-42.12 6.588-4.95 15.121-7.68 24.064-7.68 6.895 0 13.517 1.603 19.217 4.675l0.82 0.478 240.947 119.535z"  horiz-adv-x="1024" />

    
    <glyph glyph-name="fenxiao" unicode="&#58926;" d="M365.56749 351.369137H331.493712v18.410831h35.44772c16.7621 0 29.402373 9.617598 29.402373 22.257871a27.478853 27.478853 0 0 1-29.402373 22.53266h-19.509985l43.141799 73.918114a33.249412 33.249412 0 0 1 3.847039 24.18139 20.059563 20.059563 0 0 1-10.167175 13.739427 27.478853 27.478853 0 0 1-35.722509-13.739427L316.92992 456.338355c-10.991541-20.059563-11.541118-21.708294-11.541118-21.708294-14.289003 27.478853-40.943491 76.940788-42.042645 79.688673a27.478853 27.478853 0 0 1-35.997297 13.18985 27.478853 27.478853 0 0 1-10.991541-14.289004 31.600681 31.600681 0 0 1 3.572251-23.631813l40.119125-69.521498 2.198308-3.847039h-21.708294c-16.7621 0-29.402373-9.892387-29.402372-22.53266s13.189849-22.257871 29.402372-22.25787h37.920817v-18.410832H240.538709c-16.7621 0-29.402373-9.617598-29.402372-22.807448s11.541118-21.433505 27.478853-22.532659h40.119125v-24.18139a27.478853 27.478853 0 0 1 25.280544-30.226739 27.478853 27.478853 0 0 1 25.830122 27.478853v25.280545h41.218279c14.289003 2.473097 23.631813 10.991541 23.631814 21.983082a27.478853 27.478853 0 0 1-29.127584 23.357025zM853.591916 558.559687a168.720156 168.720156 0 1 1-168.720157 168.720157A182.459583 182.459583 0 0 1 688.718799 684.687622l-155.530307-103.045698a247.309675 247.309675 0 0 1-20.059563 21.708293 297.321188 297.321188 0 0 1-212.411532 87.657541A300.069073 300.069073 0 0 1 89.679807 178.527153a300.893438 300.893438 0 0 1 423.998699 0l164.873117-114.586816a137.394264 137.394264 0 0 1-10.167175-53.034186 134.096802 134.096802 0 0 1 20.334351-70.895441h-156.629461a34.073777 34.073777 0 1 1 0-67.872766h275.887682a137.394264 137.394264 0 0 1-1.648731 276.712048 135.470744 135.470744 0 0 1-87.107964-31.051104l-163.224385 113.762451a298.969919 298.969919 0 0 1 46.164472 159.926923 303.916112 303.916112 0 0 1-31.051103 133.822013l149.210171 99.198659a168.994945 168.994945 0 0 1 133.272436-65.949247z m0 278.910356a109.915411 109.915411 0 1 0-109.915412-109.915411 109.915411 109.915411 0 0 0 109.915412 109.915411z m-46.71405-756.492818a70.620652 70.620652 0 1 0-70.620652-70.620651 70.345863 70.345863 0 0 0 70.620652 70.620651zM304.014859 157.918013a233.020672 233.020672 0 1 0 233.020672 233.020672A233.020672 233.020672 0 0 0 304.014859 157.918013z"  horiz-adv-x="1024" />

    
    <glyph glyph-name="qingli" unicode="&#59140;" d="M140.8 240v57.6h739.2v-57.6H140.8z m268.8-332.8c-12.8-9.6-32-3.2-41.6 9.6-3.2 3.2-3.2 9.6-3.2 16v137.6c0 16 12.8 28.8 28.8 28.8s28.8-12.8 28.8-28.8v-137.6c0-9.6-3.2-19.2-12.8-25.6z m233.6 0c-3.2-3.2-9.6-3.2-16-3.2-16 0-28.8 12.8-28.8 28.8v140.8c0 16 12.8 28.8 28.8 28.8s28.8-12.8 28.8-28.8v-140.8c0-9.6-6.4-19.2-12.8-25.6zM771.2 476.8h-134.4V771.2C636.8 841.6 582.4 896 512 896c-67.2 0-124.8-54.4-124.8-124.8v-294.4H256c-64 0-121.6-54.4-121.6-121.6v-361.6c0-64 54.4-121.6 121.6-121.6h512c64 0 121.6 54.4 121.6 121.6V355.2c3.2 67.2-51.2 121.6-118.4 121.6zM832-6.4c0-32-25.6-57.6-57.6-57.6H259.2c-32 0-57.6 25.6-57.6 57.6V355.2c0 32 25.6 57.6 57.6 57.6H416c19.2 0 35.2 16 35.2 35.2V768c0 32 25.6 60.8 57.6 64 35.2 3.2 64-22.4 67.2-57.6v-323.2c0-19.2 16-35.2 35.2-35.2H768c32 0 57.6-25.6 57.6-57.6v-364.8z"  horiz-adv-x="1024" />

    
    <glyph glyph-name="fuwupingjia-kefu" unicode="&#59014;" d="M919.438 326.656v29.013c2.276 132.551-36.636 244.054-113.322 323.13-36.637 37.773-80.783 66.218-131.983 86.015C665.941 836.267 589.255 892.7 495.73 892.7c-93.526 0-170.894-56.32-178.404-127.886-51.2-19.797-95.346-48.242-131.982-86.016-76.686-79.075-115.712-190.009-113.323-322.56v-35.498c-19.797-20.367-35.498-50.518-23.78-93.526 8.762-31.971 31.972-55.182 60.417-65.65 14.563-9.33 31.402-14.563 49.948-14.563 36.637-160.427 168.505-269.653 341.22-269.653 172.6 0 304.583 109.226 341.22 270.222 1.137 0 2.275-0.57 3.526-0.57 22.642 0 43.577 8.193 60.416 21.505 21.504 12.174 38.344 33.11 45.284 59.278 12.174 46.649-8.192 78.62-30.834 98.873zM818.29 238.933c0-21.504-1.707-41.87-4.665-61.553-56.32-90.681-149.39-149.96-264.989-162.703-8.76 11.606-26.168 19.229-46.535 19.229-29.013 0-52.337-15.702-52.337-35.499 0-19.228 23.21-35.499 52.337-35.499 26.17 0 47.104 12.744 51.77 29.696 37.205 4.096 72.703 13.312 106.381 26.738 47.673 19.229 89.544 47.673 124.928 83.74 5.803 5.803 11.037 11.606 16.27 17.978-41.87-128.57-154.054-211.058-299.918-211.058h-1.137c-187.734 0-318.464 135.395-318.464 328.931l-0.57 18.546c0 8.192 1.139 30.265 2.276 51.2 77.938 28.445 148.253 137.216 176.697 187.165 26.17-35.5 86.016-103.993 177.835-139.492 34.247-13.312 69.177-20.366 103.424-27.876 68.039-14.563 132.551-28.444 176.128-85.447l1.707-1.706-1.138-2.39z m0 0"  horiz-adv-x="1024" />

    
    <glyph glyph-name="huiyuan" unicode="&#58885;" d="M156.003996 739.996004m-156.003996 0a156.003996 156.003996 0 1 1 312.007992 0 156.003996 156.003996 0 1 1-312.007992 0ZM925.794206-17.006993m-97.182817 0a97.182817 97.182817 0 1 1 194.365634 0 97.182817 97.182817 0 1 1-194.365634 0ZM765.186813 447.936064c-0.511489 0.511489-1.022977 0.511489-1.534465 0l-86.441559-59.332667c-17.902098-12.275724-41.942058-8.183816-54.729271 8.695304L510.465534 544.095904c-0.511489 0.511489-0.511489 0.511489-1.022977 0.511489s-1.022977 0-1.022977-0.511489L396.403596 397.298701c-12.787213-16.879121-37.338661-20.971029-54.72927-8.695304L256.255744 447.424575s-0.511489 0.511489-1.022977 0.511489-0.511489 0-1.022977-0.511489-1.022977-1.022977-0.511488-1.534465c5.114885-33.758242 11.764236-78.769231 18.925075-122.757243 8.695305-53.706294 16.367632-104.343656 19.948052-132.475524 0-0.511489 0.511489-1.534466 1.534465-1.534466h430.673327c0.511489 0 1.534466 0.511489 1.534465 1.534466 3.58042 27.108891 11.252747 74.165834 18.925075 123.780219 7.672328 47.056943 15.344655 95.136863 20.459541 131.452548 0.511489 1.022977 0 1.534466-0.511489 2.045954zM509.442557 626.445554c2.045954-1.022977 4.603397-0.511489 6.137863 1.022977 1.534466 1.534466 2.045954 4.091908 1.022977 6.137863-1.022977 2.045954-3.068931 3.58042-5.114886 3.580419-3.068931 0-5.626374-2.557443-5.626373-5.626373 0-2.045954 1.534466-4.603397 3.580419-5.114886zM215.336663 516.475524c-2.045954-1.022977-3.58042-3.068931-3.580419-5.114885 0-3.068931 2.557443-5.626374 5.626373-5.626373 2.045954 0 4.091908 1.534466 5.114885 3.580419 1.022977 2.045954 0.511489 4.603397-1.022977 6.137862-2.045954 1.534466-4.091908 2.045954-6.137862 1.022977zM514.557443 769.150849c-247.56044 0-448.575425-200.503497-448.575425-449.086913s201.014985-448.063936 448.575425-448.063936 448.575425 200.503497 448.575424 449.086913-200.503497 448.063936-448.575424 448.063936z m234.261738-766.20979H280.807193c-8.183816 0-14.833167 8.695305-14.833167 19.436563 0 10.741259 6.649351 19.436563 14.833167 19.436564h468.011988c8.183816 0 14.833167-8.695305 14.833167-19.436564 0-10.22977-6.649351-19.436563-14.833167-19.436563z m63.424575 471.592408c-1.534466 0-3.58042 0-5.114885 0.511488 4.091908-7.672328 5.114885-16.879121 4.091908-25.574426-5.114885-38.873127-13.298701-91.044955-20.971029-140.65934-8.183816-52.683317-15.856144-102.297702-19.436563-130.429571-2.557443-21.482517-19.948052-37.338661-40.407593-37.338661H292.571429c-20.45954 0-37.85015 15.856144-40.407593 37.338661-3.58042 29.666334-11.764236 83.372627-20.45954 139.636364-7.160839 46.545455-14.321678 94.625375-19.436564 130.941059-1.022977 8.695305 0 17.902098 4.091908 26.085914-15.344655 0.511489-28.643357 10.741259-33.246753 26.597403-4.091908 15.344655 1.534466 31.712288 14.321678 40.919081 12.787213 8.695305 29.666334 7.672328 41.43057-2.045954 11.764236-10.22977 15.856144-27.108891 10.22977-41.942058 9.206793 1.022977 18.925075-2.045954 26.597403-7.672328l86.953047-62.913087c0.511489-0.511489 1.534466-0.511489 2.045954 0.511488l114.061938 156.515485c4.603397 6.649351 11.252747 11.252747 18.413586 14.321678-15.344655 7.160839-23.528472 24.03996-20.45954 40.919081 3.58042 16.879121 17.902098 29.154845 34.26973 29.154845s30.689311-12.275724 34.26973-29.154845c3.58042-16.879121-5.114885-34.26973-20.45954-40.919081 7.160839-2.557443 13.81019-7.672328 18.413586-14.321678l114.061938-156.515485c0.511489-0.511489 1.534466-1.022977 2.045954-0.511488L746.773227 491.412587c9.206793 7.160839 21.482517 9.206793 32.735265 6.649351-4.603397 11.252747-3.58042 24.03996 3.068931 34.26973 6.649351 10.22977 17.390609 16.367632 29.154845 16.367633 19.436563 0 35.292707-16.367632 35.292707-36.827173 0.511489-20.971029-15.344655-37.338661-34.781219-37.338661zM812.243756 516.987013c-3.068931 0-5.626374-2.557443-5.626373-5.626374s2.557443-5.626374 5.626373-5.626373c3.068931 0 5.626374 2.557443 5.626374 5.626373s-2.557443 5.626374-5.626374 5.626374z"  horiz-adv-x="1024" />

    
    <glyph glyph-name="shouhou" unicode="&#58916;" d="M508.396373-128c264.533333 0 477.866667 200.533333 507.733334 452.266667 4.266667 21.333333-12.8 38.4-29.866667 38.4-17.066667 0-29.866667-12.8-29.866667-29.866667-25.6-221.866667-213.333333-396.8-443.733333-396.8-192 0-354.133333 119.466667-418.133333 290.133333h89.6l-128 128c-4.266667 4.266667-12.8 8.533333-21.333334 8.533334-21.333333 0-34.133333-17.066667-29.866666-38.4C30.529707 72.533333 248.129707-128 508.396373-128M0.66304 443.733333c-4.266667-21.333333 12.8-38.4 29.866667-38.4 17.066667 0 29.866667 12.8 29.866666 29.866667 25.6 221.866667 213.333333 396.8 443.733334 396.8 192 0 354.133333-119.466667 418.133333-290.133333h-89.6l128-128c4.266667-4.266667 12.8-8.533333 21.333333-8.533334 21.333333 0 34.133333 17.066667 29.866667 38.4C986.26304 695.466667 772.929707 896 508.396373 896S30.529707 695.466667 0.66304 443.733333zM252.396373 409.6l-17.066666 51.2C290.796373 512 329.196373 567.466667 354.796373 627.2l51.2-8.533333c-8.533333-17.066667-12.8-29.866667-21.333333-42.666667h119.466667c-8.533333 17.066667-17.066667 34.133333-25.6 46.933333l55.466666 8.533334c8.533333-17.066667 17.066667-34.133333 21.333334-55.466667h157.866666v-42.666667h-162.133333v-29.866666h136.533333v-42.666667h-136.533333v-29.866667h140.8v-42.666666h-140.8v-29.866667h170.666667v-42.666667H307.86304v149.333334c-17.066667-21.333333-34.133333-38.4-55.466667-55.466667z m439.466667-298.666667H640.66304v25.6H359.06304v-25.6H307.86304v170.666667h384v-170.666667z m-192 422.4H359.06304v-29.866666h140.8v29.866666z m0-72.533333H359.06304v-29.866667h140.8v29.866667z m0-72.533333H359.06304v-29.866667h140.8v29.866667z m140.8-209.066667v55.466667H359.06304v-55.466667H640.66304z"  horiz-adv-x="1024" />

    
    <glyph glyph-name="kaquan" unicode="&#59041;" d="M742.4 358.4c-15.36 0-25.6-10.24-25.6-25.6v-51.2c0-15.36 10.24-25.6 25.6-25.6s25.6 10.24 25.6 25.6v51.2c0 15.36-10.24 25.6-25.6 25.6zM742.4 179.2c-15.36 0-25.6-10.24-25.6-25.6v-51.2c0-15.36 10.24-25.6 25.6-25.6s25.6 10.24 25.6 25.6v51.2c0 15.36-10.24 25.6-25.6 25.6zM972.8 302.08c7.68 2.56 17.92 5.12 25.6 5.12 7.68 0 17.92-2.56 25.6-5.12V435.2c0 84.48-69.12 153.6-153.6 153.6h-2.56L545.28 860.16C517.12 883.2 481.28 896 445.44 896c-46.08 0-89.6-20.48-117.76-53.76l-76.8-92.16h17.92C204.8 750.08 145.92 709.12 122.88 650.24l-25.6-71.68C38.4 555.52 0 499.2 0 435.2v-409.6c0-84.48 69.12-153.6 153.6-153.6h716.8c84.48 0 153.6 69.12 153.6 153.6v133.12c-7.68-2.56-17.92-5.12-25.6-5.12-7.68 0-17.92 2.56-25.6 5.12-40.96 15.36-58.88 58.88-46.08 99.84 7.68 20.48 25.6 35.84 46.08 43.52zM366.08 808.96c35.84 43.52 99.84 48.64 143.36 12.8L788.48 588.8h-51.2L320 739.84c-2.56 0-5.12 0-7.68 2.56l53.76 66.56z m-194.56-176.64c15.36 40.96 53.76 66.56 97.28 66.56 12.8 0 23.04-2.56 35.84-5.12L588.8 588.8H156.16l15.36 43.52zM872.96 204.8c10.24-51.2 48.64-89.6 99.84-99.84V25.6c0-56.32-46.08-102.4-102.4-102.4h-102.4v51.2c0 15.36-10.24 25.6-25.6 25.6s-25.6-10.24-25.6-25.6v-51.2H153.6c-56.32 0-102.4 46.08-102.4 102.4V435.2c0 56.32 46.08 102.4 102.4 102.4h563.2v-76.8c0-15.36 10.24-25.6 25.6-25.6s25.6 10.24 25.6 25.6v76.8h102.4c56.32 0 102.4-46.08 102.4-102.4v-79.36c-69.12-12.8-115.2-81.92-99.84-151.04zM506.88 409.6c-10.24 10.24-25.6 10.24-35.84 0L384 322.56 296.96 409.6c-10.24 10.24-25.6 10.24-35.84 0-10.24-10.24-10.24-25.6 0-35.84l74.24-74.24H281.6c-15.36 0-25.6-10.24-25.6-25.6s10.24-25.6 25.6-25.6h76.8v-51.2h-76.8c-15.36 0-25.6-10.24-25.6-25.6s10.24-25.6 25.6-25.6h76.8v-76.8c0-15.36 10.24-25.6 25.6-25.6s25.6 10.24 25.6 25.6v76.8h76.8c15.36 0 25.6 10.24 25.6 25.6s-10.24 25.6-25.6 25.6h-76.8v51.2h76.8c15.36 0 25.6 10.24 25.6 25.6s-10.24 25.6-25.6 25.6h-53.76l74.24 74.24c10.24 10.24 10.24 25.6 0 35.84z"  horiz-adv-x="1024" />

    
    <glyph glyph-name="fapiao" unicode="&#58886;" d="M947.261624 600.07399a32.887875 32.887875 0 0 0-32.887875-32.823008h-62.2729v99.89611h10.313949a32.304067 32.304067 0 0 1 0 64.478399H149.19549a32.239199 32.239199 0 1 1 0-64.478399h10.249081v-99.89611h-62.2729a32.887875 32.887875 0 0 0-32.75814 32.823008V798.698594c0 18.162929 14.724946 32.823008 32.823008 32.823007h817.072342c18.162929 0 32.887875-14.660079 32.887876-32.823007v-198.624604z m-159.574306-530.746738l-124.416065 97.690612-157.433675-119.226657-156.720132 118.707716-125.194476-91.398454V667.147092h563.829215v-597.81984zM914.438616 896H97.301406a97.301406 97.301406 0 0 1-97.301406-97.301406v-198.624604a97.301406 97.301406 0 0 1 97.301406-97.301407h62.208033v-554.618016L348.46877 86.063094l157.368808-119.161789 156.720131 118.707716L852.165716-63.132396V502.772583h62.208033a97.301406 97.301406 0 0 1 97.301406 97.301407V798.698594a97.301406 97.301406 0 0 1-97.301406 97.301406zM283.276828 464.630432h445.186367v64.478399H283.276828zM283.276828 307.521095h445.186367v64.478398H283.276828z"  horiz-adv-x="1064" />

    
    <glyph glyph-name="dizhi" unicode="&#59549;" d="M511.630013-127.598015c-264.052459 0-475.242828 59.039867-475.242828 156.39135 0 62.621737 77.5012 104.224234 202.416686 130.325291 19.485296 5.227811 38.823597-6.872752 40.358542-25.955063a33.266798 33.266798 0 0 0-26.430045-41.748491c-91.538692-19.229305-146.082722-48.767238-146.082722-62.621737 0-3.436876 5.300808-8.663687 21.167236-19.083311 19.302303-12.209559 47.451285-24.309122 84.446948-34.728745 77.464201-22.519186 186.696254-34.765744 301.047123-34.765744 114.459864 0 221.864983 12.246557 301.084121 34.765744 36.848669 10.419624 65.070649 22.519186 84.40995 34.728745 14.037493 10.419624 19.339301 15.646435 19.339301 19.083311 0 15.646435-59.77184 46.975303-160.120215 66.057613a33.961773 33.961773 0 0 0-28.112984 39.958556 34.363758 34.363758 0 0 0 40.505537 27.745997c133.689169-25.956062 216.454179-69.495489 216.454179-133.762166 0-97.351482-211.190369-156.391349-475.241829-156.39135z m83.31299 193.313016c-17.43837-15.682433-33.011807-28.148983-46.574317-37.068661-18.424334-12.209559-32.462827-17.656362-45.513356-17.656362-12.867535 0-26.942027 5.446803-45.476356 17.657362a410.97515 410.97515 0 0 0-46.574318 37.06866c-36.373686 32.681819-76.075251 75.453274-111.900956 120.637642-55.822983 70.372457-149.591595 206.693532-149.591595 328.100144 0 103.566258 33.778779 198.906813 95.048566 268.365304A328.392134 328.392134 0 0 0 356.517618 865.694095C401.3 885.800369 450.506222 896 502.85533 896s101.628328-10.199631 146.337713-30.305905a329.05011 329.05011 0 0 0 112.193946-82.875005c61.342784-69.45849 95.011567-164.799045 95.011567-268.365304 0-121.405613-93.732613-257.617692-149.554596-328.100144-35.862704-45.184367-75.56327-88.065818-111.900957-120.637642z m-92.086673 766.748295c-170.21085 0-289.20355-130.691278-289.20355-317.899514 0-72.164392 46.829308-174.08471 128.571354-279.479901 32.206836-41.491501 68.470526-81.814044 102.213307-113.362904 31.072877-29.025951 50.192186-41.638495 58.271895-45.842344 8.151705 4.203848 27.235016 16.816392 58.307893 45.842344a995.522029 995.522029 0 0 1 102.250305 113.363904c81.742046 105.394192 128.535356 207.314509 128.535356 279.478901 0.254991 187.208236-118.627714 317.899513-288.94756 317.899514z m0-455.463543a172.475768 172.475768 0 0 0-121.845597 49.753202 168.052928 168.052928 0 0 0-50.412178 120.272654c0 45.440358 17.949351 88.176814 50.412178 120.235656a172.329773 172.329773 0 0 0 121.845597 49.791201c46.061336 0 89.344772-17.693361 121.843598-49.790201a167.796937 167.796937 0 0 0 50.412178-120.235656c0-45.441358-17.912353-88.212813-50.412178-120.273654a172.183779 172.183779 0 0 0-121.844598-49.754202z m0 276.553007c-59.442852 0-107.771106-47.743275-107.771106-106.417155s48.328254-106.381156 107.770106-106.381156 107.806105 47.707276 107.806105 106.381156-48.218258 106.417155-107.806105 106.417155z"  horiz-adv-x="1024" />

    
    <glyph glyph-name="kefu" unicode="&#58929;" d="M157.5424 449.6384c43.52 0 78.7712-35.2512 78.7712-78.7712v-183.808c0-43.4944-35.2768-78.7456-78.7712-78.7456H78.7712A78.7712 78.7712 0 0 0 0 187.0848v183.808c0 43.4944 35.2768 78.7456 78.7712 78.7456h78.7712z m0-52.5056H78.7712c-13.4656 0-24.576-10.1376-26.0864-23.1936l-0.1792-3.072v-183.808c0-13.44 10.1376-24.5504 23.1936-26.0608l3.072-0.1792h78.7712c13.4656 0 24.576 10.1376 26.0864 23.1936l0.1536 3.072v183.808c0 13.44-10.112 24.5504-23.1936 26.0608l-3.072 0.1792zM945.2288 449.6384c43.52 0 78.7712-35.2512 78.7712-78.7712v-183.808c0-43.4944-35.2768-78.7456-78.7712-78.7456h-78.7712a78.7712 78.7712 0 0 0-78.7712 78.7712v183.808c0 43.4944 35.2768 78.7456 78.7712 78.7456h78.7712z m0-52.5056h-78.7712c-13.4656 0-24.576-10.1376-26.0864-23.1936l-0.1536-3.072v-183.808c0-13.44 10.112-24.5504 23.1936-26.0608l3.072-0.1792h78.7456c13.4656 0 24.576 10.1376 26.0864 23.1936l0.1792 3.072v183.808c0 13.44-10.1376 24.5504-23.1936 26.0608l-3.072 0.1792zM420.096-36.096c0 43.52 35.2768 78.7712 78.7712 78.7712h78.7712a78.7712 78.7712 0 0 0 0-157.5424h-78.7712a78.7712 78.7712 0 0 0-78.7712 78.7712z m52.5312 0c0-13.4656 10.112-24.576 23.1936-26.0864l3.072-0.1792h78.7456a26.2656 26.2656 0 0 1 3.072 52.3264l-3.072 0.1792h-78.7712c-14.4896 0-26.24-11.7504-26.24-26.24zM525.1328 896c273.92 0 424.448-156.5184 445.6192-460.16l0.6912-10.9056-52.4288-3.072c-16.7168 284.3136-145.9456 421.632-393.8816 421.632-244.736 0-373.8368-133.8112-393.216-410.7776l-0.6912-10.88-52.4032 3.072C97.1008 735.744 247.936 896 525.1328 896zM870.1952 148.0704l45.056-27.008c-55.168-91.9296-145.8944-148.096-270.0032-168.2944l-11.392-1.7408-7.424 51.968c111.5136 15.9488 190.5152 61.7728 239.1552 137.6512l4.608 7.424z"  horiz-adv-x="1024" />

    
    <glyph glyph-name="sousuojieguoweikong" unicode="&#58938;" d="M937.69728-60.33408L800.58368 76.8a258.74432 258.74432 0 0 1 41.32864 140.82048c0 143.7696-116.61312 260.4032-260.352 260.4032-143.74912 0-260.352-116.6336-260.352-260.4032s116.60288-260.4032 260.352-260.4032c67.60448 0 129.1264 25.76384 175.49312 68.0448l133.12-133.15072a33.60768 33.60768 0 0 1 23.7568-9.8816 33.1776 33.1776 0 0 1 23.76704 9.8816 33.5872 33.5872 0 0 1 0 47.54432z m-356.1472 84.86912a191.75424 191.75424 0 0 0-136.47872 56.58624 191.83616 191.83616 0 0 0-56.576 136.50944c0 51.53792 20.09088 100.02432 56.576 136.51968a191.75424 191.75424 0 0 0 136.48896 56.58624c51.51744 0 99.9936-20.09088 136.47872-56.58624a191.83616 191.83616 0 0 0 56.576-136.51968c0-51.52768-20.08064-100.01408-56.576-136.50944a191.56992 191.56992 0 0 0-136.47872-56.58624zM327.34208 15.89248H138.71104v740.9664h414.75072V600.8832a33.5872 33.5872 0 0 1 33.51552-33.73056h156.0576v-45.1072a33.5872 33.5872 0 0 1 33.51552-33.73056 33.5872 33.5872 0 0 1 33.51552 33.73056V643.03104c0 8.96-3.56352 17.60256-9.84064 23.92064l-69.23264 69.57056-0.1024 0.1024-78.44864 77.99808A33.52576 33.52576 0 0 1 628.86912 824.32h-523.6736A33.5872 33.5872 0 0 1 71.68 790.58944V-17.8176a33.5872 33.5872 0 0 1 33.51552-33.73056h222.14656a33.5872 33.5872 0 0 1 33.51552 33.73056 33.5872 33.5872 0 0 1-33.51552 33.72032z m356.41344 672.768l53.83168-53.9648H620.4928V751.50336l63.26272-62.8224z"  horiz-adv-x="1024" />

    
    <glyph glyph-name="paixujiantouup" unicode="&#59636;" d="M767.488 486.4H255.488l256 409.6zM255.488 281.6h512l-257.024-409.6zM767.488 486.4H255.488l256 409.6zM255.488 281.6h512l-257.024-409.6z"  horiz-adv-x="1024" />

    
    <glyph glyph-name="paixujiantouxia" unicode="&#58899;" d="M767.488 486.4H255.488l256 409.6zM255.488 281.6h512l-257.024-409.6zM767.488 486.4H255.488l256 409.6zM255.488 281.6h512l-257.024-409.6z"  horiz-adv-x="1024" />

    
    <glyph glyph-name="carticon" unicode="&#58882;" d="M376.331907 88.159256a108.162977 108.162977 0 0 0 75.037767-30.005582c9.858977-9.45414 17.455628-20.59907 22.742326-33.43479 5.310512-12.859535 7.977674-26.433488 7.977674-40.793303a105.733953 105.733953 0 0 0-7.977674-40.769488 97.089488 97.089488 0 0 0-22.742326-33.434791 116.783628 116.783628 0 0 0-34.101581-22.670883 100.59014 100.59014 0 0 0-40.936186-8.477768 99.423256 99.423256 0 0 0-41.483907 8.477768 119.212651 119.212651 0 0 0-33.55386 22.670883 97.089488 97.089488 0 0 0-22.742326 33.434791 105.733953 105.733953 0 0 0-7.953861 40.769488c0 14.359814 2.667163 27.957581 7.953861 40.793303 5.310512 12.859535 12.883349 23.980651 22.742326 33.43479a110.020465 110.020465 0 0 0 33.55386 22.075535 105.543442 105.543442 0 0 0 41.483907 7.930047z m472.992744-2.262326c14.407442 0 28.243349-2.619535 41.507721-7.930046a100.256744 100.256744 0 0 0 34.101581-22.099349c9.477953-9.430326 17.050791-20.575256 22.742326-33.410977 5.691535-12.859535 8.525395-26.433488 8.525395-40.793302 0-14.336-2.857674-27.933767-8.525395-40.793303a108.901209 108.901209 0 0 0-22.742326-33.410976 107.567628 107.567628 0 0 0-34.101581-22.670884 104.614698 104.614698 0 0 0-41.507721-8.477767 100.59014 100.59014 0 0 0-40.936186 8.477767 109.306047 109.306047 0 0 0-33.530046 22.670884 108.901209 108.901209 0 0 0-22.742326 33.410976 99.637581 99.637581 0 0 0-8.525395 40.793303c0 14.359814 2.857674 27.957581 8.525395 40.793302 5.691535 12.859535 13.264372 23.980651 22.742326 33.410977a101.590326 101.590326 0 0 0 33.530046 22.099349 106.757953 106.757953 0 0 0 40.936186 7.930046z m191.011721 643.548279c21.218233 0 37.721302-2.83386 49.461581-8.501581 11.740279-5.667721 20.075163-12.645209 25.004652-20.956279 4.929488-8.31107 7.215628-17.16986 6.834604-26.624a88.421209 88.421209 0 0 0-3.97693-24.361675l-14.21693-41.912558c-7.215628-21.146791-15.36-44.389209-24.45693-69.679628a9222.834605 9222.834605 0 0 1-26.719256-75.347348 2233.915535 2233.915535 0 0 1-19.884651-58.915721c-9.858977-30.219907-22.385116-51.176186-37.530791-62.868838-15.145674-11.716465-33.720558-17.574698-55.724651-17.574697H342.25414l17.05079-101.971349H932.316279c36.387721 0 54.581581-15.47907 54.581581-46.437209 0-15.12186-3.595907-28.148093-10.811534-39.102512-7.191814-10.954419-21.408744-16.431628-42.626977-16.431628H337.68186c-15.169488 0-27.862326 3.405395-38.102325 10.192372a86.13507 86.13507 0 0 0-25.576186 26.624 161.55386 161.55386 0 0 0-16.479256 35.697116c-4.167442 12.859535-7.382326 24.933209-9.668465 36.244838-0.762047 4.524651-2.857674 15.47907-6.239256 32.863255a9754.909767 9754.909767 0 0 0-12.526139 65.154977l-16.479256 87.230512c-6.048744 32.101209-12.145116 64.39293-18.193861 96.875163C180.033488 585.942326 163.72093 670.910512 145.52707 764.570791h-85.253954c-11.38307 0-20.861023 2.83386-28.43386 8.501581a74.061395 74.061395 0 0 0-18.765396 20.384744 78.347907 78.347907 0 0 0-10.24 25.480931C0.952558 828.034977 0 836.346047 0 843.89507 0 858.993116 5.12 871.471628 15.36 881.259163 25.6 891.094326 39.412093 896 56.843907 896H171.698605c15.169488 0 27.290791-2.262326 36.387721-6.786977 9.09693-4.524651 16.312558-10.216186 21.599255-17.003163 5.310512-6.810791 9.09693-13.978791 11.38307-21.527813 2.262326-7.549023 4.167442-13.978791 5.691535-19.265489 1.500279-6.048744 3.024372-14.526512 4.524651-25.48093 1.524093-10.954419 3.048186-22.099349 4.548465-33.434791 2.28614-13.573953 4.548465-27.933767 6.834605-43.055628h777.692279z"  horiz-adv-x="1143" />

    
    <glyph glyph-name="weixinzhifu" unicode="&#58923;" d="M390.21952 264.90752c-61.26464-34.01984-70.35136 19.09888-70.35136 19.09888l-76.78208 178.46656c-29.54368 84.80512 25.56928 38.23744 25.56928 38.23744s47.2896-35.63392 83.17952-57.34784c35.87072-21.71392 76.75776-6.3744 76.75776-6.3744l501.9648 230.7776C837.94688 782.5472 684.96256 857.6 511.76576 857.6 229.11104 857.6 0 657.86752 0 411.47136c0-141.72544 75.8656-267.8656 194.0352-349.62176l-21.31072-122.01856c0 0-10.38848-35.6224 25.61536-19.10016 24.53376 11.26528 87.0784 51.63392 124.30976 76.20224 58.53056-20.31616 122.2976-31.5968 189.14432-31.5968 282.63168 0 511.79008 199.73248 511.79008 446.13376 0 71.36896-19.31008 138.76864-53.51552 198.59456C810.14144 514.2208 438.15808 291.48288 390.21952 264.90752L390.21952 264.90752 390.21952 264.90752zM390.21952 264.90752"  horiz-adv-x="1024" />

    
    <glyph glyph-name="anquanbaozhang-mian" unicode="&#58942;" d="M829 756.3C684.5 720.1 642.9 786 535.5 829.7c-6.9 2.8-37.7 3.2-44.5 0-101.2-48.2-155.3-109.6-300.9-73.4-75.5 18.8-71.9-392.9-15.2-563.2 0.5-1.8 46.7-154.8 338.3-257.1C804.8 38.4 851 191.5 851.5 193.1c56.8 170.4 55.2 566.8-22.5 563.2zM720.3 495.2L464.8 239.7c-4.7-4.7-10.8-7-17-7s-12.3 2.3-17 7L303.7 367c-9.4 9.4-9.4 24.6 0 33.9 9.4 9.4 24.6 9.4 33.9 0l110.3-110.3 238.5 238.5c9.4 9.4 24.6 9.4 33.9 0 9.4-9.3 9.4-24.5 0-33.9z"  horiz-adv-x="1024" />

    
    <glyph glyph-name="gwc" unicode="&#58996;" d="M393.528889-113.77777800000001a80.64 80.64 0 1 0 80.64 80.64A80.64 80.64 0 0 0 393.528889-113.77777800000001z m373.333333 0a80.64 80.64 0 1 0 80.64 80.64A80.64 80.64 0 0 0 766.862222-113.77777800000001z m218.595556 752.64l-74.097778-304.071111c-7.68-28.444444-35.271111-53.048889-64-45.368889h-483.555556L384 208.78222200000005h436.622222a53.76 53.76 0 0 0 0-107.52H363.662222a40.248889 40.248889 0 0 0-17.351111 0h-9.528889a53.76 53.76 0 0 0-53.76 53.76l-122.311111 477.155556a53.333333 53.333333 0 0 0-12.088889 33.564444 54.755556 54.755556 0 0 0 0.995556 9.671111L124.444444 773.262222h-56.888888a53.76 53.76 0 0 0 0 107.52h80.64a40.533333 40.533333 0 0 0 17.351111 0h9.528889a53.76 53.76 0 0 0 53.76-53.76L256 719.502222h654.222222a42.666667 42.666667 0 0 0 21.475556 0 53.76 53.76 0 0 0 53.76-53.76 56.888889 56.888889 0 0 0 0-6.115555 42.666667 42.666667 0 0 0 0-20.764445z m0 0"  horiz-adv-x="1024" />

    
    <glyph glyph-name="loc-s" unicode="&#58964;" d="M512 777.1136c-155.648 0-282.2144-128.6144-282.2144-286.6176 0-53.248 12.8-111.616 38.0928-173.3632 20.0704-49.0496 48.128-100.4544 83.2512-152.8832 59.5968-88.8832 120.9344-152.3712 127.6928-159.3344 8.8064-9.0112 20.5824-14.0288 33.1776-14.0288 12.5952 0 24.3712 5.0176 33.1776 14.0288 6.8608 6.9632 68.096 70.4512 127.6928 159.3344 35.1232 52.4288 63.1808 103.8336 83.2512 152.8832C781.4144 378.88 794.2144 437.248 794.2144 490.496c0 158.0032-126.5664 286.6176-282.2144 286.6176z m0-374.1696c-62.5664 0-113.4592 50.8928-113.4592 113.4592S449.4336 629.76 512 629.76s113.4592-50.8928 113.4592-113.4592S574.5664 402.944 512 402.944z"  horiz-adv-x="1024" />

    
    <glyph glyph-name="wodekefu" unicode="&#59019;" d="M884.165 444.506c-2.494 203.504-168.046 367.753-372.161 367.753s-369.666-164.249-372.165-367.753c-34.163-27.314-56.096-69.25-56.096-116.37 0-82.254 66.697-148.969 148.96-148.969 35.899 0 68.818 12.726 94.534 33.857l-70.18 261.923c-7.949 1.294-16.045 2.155-24.353 2.155-5.474 0-10.855-0.339-16.183-0.926 17.954 147.35 143.268 261.601 295.488 261.601 152.199 0 277.532-114.25 295.481-261.601-5.306 0.583-10.705 0.926-16.18 0.926-8.305 0-16.421-0.863-24.375-2.155l-70.159-261.801c19.847-16.295 43.981-27.559 70.459-31.868-35.138-37.751-79.825-66.511-130.378-82.068l-6.164-6.156c-15.77 28.99-46.122 48.892-81.442 48.892-51.427 0-93.102-41.674-93.102-93.118 0-51.431 41.673-93.104 93.102-93.104 42.211 0 77.419 28.27 88.852 66.758 102.752 25.189 188.829 92.829 238.272 183.482 38.595 26.917 63.899 71.562 63.899 122.175-0.002 47.108-21.955 89.058-56.102 116.371z"  horiz-adv-x="1024" />

    
    <glyph glyph-name="guanbi1" unicode="&#58888;" d="M583.168 372.22400000000005L958.464 747.52c18.944 18.944 18.944 50.176 0 69.12l-2.048 2.048c-18.944 18.944-50.176 18.944-69.12 0L512 442.88 136.704 818.688c-18.944 18.944-50.176 18.944-69.12 0l-2.048-2.048c-19.456-18.944-19.456-50.176 0-69.12l375.296-375.296L65.536-3.0720000000000027c-18.944-18.944-18.944-50.176 0-69.12l2.048-2.048c18.944-18.944 50.176-18.944 69.12 0L512 301.05600000000004 887.296-74.24000000000001c18.944-18.944 50.176-18.944 69.12 0l2.048 2.048c18.944 18.944 18.944 50.176 0 69.12L583.168 372.22400000000005z"  horiz-adv-x="1024" />

    
    <glyph glyph-name="weixin" unicode="&#58991;" d="M816.551274 647.832897C697.80273 764.499014 553.294498 798.33054 394.437467 755.47243 114.716718 680.005644 28.163433 389.01113 169.479973 199.353606c6.853082-9.198499 8.147564-26.164916 5.545296-38.09769-7.601118-34.868135-18.714224-68.958558-28.000728-103.474676-4.965082-18.455327-7.90504-37.21253 8.632611-52.019771 17.777899-15.921621 36.82572-12.654204 56.258305-2.777253 31.879058 16.200984 64.335261 31.314193 95.763041 48.336892 20.469194 11.086499 38.847773 11.658528 61.942771 5.240351 46.063105-12.799514 93.717452-19.872606 117.992321-24.74866 144.317896 2.603291 249.610988 41.736567 333.958024 129.489166C955.8826 301.033403 954.903296 511.909182 816.551274 647.832897zM763.498988 214.121961C658.864906 110.271732 531.49603 85.437114 393.782551 131.628132c-45.408189 15.229866-82.686211 19.207457-122.088616-7.493671-3.576455-2.423189-8.448416-2.934842-26.51284-8.852622 36.271088 62.917982 9.41851 102.273315-21.181415 146.894581-67.886133 98.989525-54.03773 226.624461 26.78197 318.740438 132.026966 150.480246 390.603139 150.382009 522.634198-0.196475C869.144096 471.544869 867.098507 316.945815 763.498988 214.121961zM640.32976 518.567835c-26.245757 0.961908-47.457872-18.594497-48.955992-45.13906-1.532913-27.1565 16.636912-48.230468 43.304272-50.227961 26.571169-1.989307 48.850591 16.263405 51.568493 42.247196C689.112814 492.85522 667.75846 517.560902 640.32976 518.567835zM385.221572 518.61286c-27.757181-0.205685-48.88743-23.684422-46.821375-52.023864 1.940189-26.610054 23.154349-44.910862 50.212612-43.317575 26.505677 1.560542 46.149063 22.886243 45.152363 49.02046C432.798147 497.654526 410.636405 518.801149 385.221572 518.61286z"  horiz-adv-x="1024" />

    
    <glyph glyph-name="fangdajingsousuo" unicode="&#58910;" d="M950.765-9.51L741.217 200.038C797.85 266.939 832 353.481 832 448c0 212.077-171.922 384-384 384C235.923 832 64 660.077 64 448s171.923-384 384-384c94.518 0 181.06 34.149 247.961 90.783L905.51-54.765c12.496-12.496 32.758-12.496 45.255 0 12.496 12.497 12.496 32.759 0 45.255zM128 448c0 176.731 143.269 320 320 320s320-143.269 320-320-143.269-320-320-320-320 143.269-320 320z"  horiz-adv-x="1024" />

    
    <glyph glyph-name="guanbi" unicode="&#59319;" d="M512.001 880.322C237.414 880.322 14.82 657.727 14.82 383.14S237.414-114.04 512-114.04s497.18 222.593 497.18 497.18S786.589 880.322 512.002 880.322z m213.211-645.937c17.798-17.803 17.798-46.657 0-64.456-17.798-17.797-46.658-17.797-64.456 0L512.001 318.685 363.241 169.93c-17.799-17.797-46.652-17.797-64.45 0-17.804 17.799-17.804 46.653 0 64.456L447.545 383.14 298.79 531.896c-17.803 17.798-17.803 46.657 0 64.455 17.799 17.798 46.652 17.798 64.45 0l148.761-148.755 148.755 148.755c17.798 17.798 46.658 17.798 64.456 0 17.798-17.798 17.798-46.657 0-64.455L576.456 383.14l148.756-148.755z m0 0"  horiz-adv-x="1024" />

    
    <glyph glyph-name="gouwucheman1" unicode="&#58881;" d="M346.112 89.088q19.456 0 36.864-7.168t30.208-19.968 20.48-30.208 7.68-36.864-7.68-36.864-20.48-30.208-30.208-20.48-36.864-7.68q-20.48 0-37.888 7.68t-30.208 20.48-20.48 30.208-7.68 36.864 7.68 36.864 20.48 30.208 30.208 19.968 37.888 7.168zM772.096 87.04q19.456 0 37.376-7.168t30.72-19.968 20.48-30.208 7.68-36.864-7.68-36.864-20.48-30.208-30.72-20.48-37.376-7.68-36.864 7.68-30.208 20.48-20.48 30.208-7.68 36.864 7.68 36.864 20.48 30.208 30.208 19.968 36.864 7.168zM944.128 668.672q28.672 0 44.544-7.68t22.528-18.944 6.144-24.064-3.584-22.016-13.312-37.888-22.016-62.976-23.552-68.096-18.944-53.248q-13.312-40.96-33.28-56.832t-49.664-15.872l-35.84 0-65.536 0-86.016 0-96.256 0-253.952 0 14.336-92.16 517.12 0q49.152 0 49.152-41.984 0-20.48-9.728-35.328t-38.4-14.848l-49.152 0-94.208 0-118.784 0-119.808 0-99.328 0-55.296 0q-20.48 0-34.304 9.216t-23.04 24.064-14.848 32.256-8.704 32.768q-1.024 6.144-5.632 29.696t-11.264 58.88-14.848 78.848-16.384 87.552q-19.456 103.424-44.032 230.4l-76.8 0q-15.36 0-25.6 7.68t-16.896 18.432-9.216 23.04-2.56 22.528q0 20.48 13.824 33.792t37.376 13.312l21.504 0 21.504 0 25.6 0 34.816 0q20.48 0 32.768-6.144t19.456-15.36 10.24-19.456 5.12-17.408q2.048-8.192 4.096-23.04t4.096-30.208q3.072-18.432 6.144-38.912l700.416 0zM867.328 701.44l-374.784 0 135.168 135.168q23.552 23.552 51.712 24.064t51.712-23.04z"  horiz-adv-x="1024" />

    
    <glyph glyph-name="gouwucheman" unicode="&#58880;" d="M346.112 89.088q19.456 0 36.864-7.168t30.208-19.968 20.48-30.208 7.68-36.864-7.68-36.864-20.48-30.208-30.208-20.48-36.864-7.68q-20.48 0-37.888 7.68t-30.208 20.48-20.48 30.208-7.68 36.864 7.68 36.864 20.48 30.208 30.208 19.968 37.888 7.168zM772.096 87.04q19.456 0 37.376-7.168t30.72-19.968 20.48-30.208 7.68-36.864-7.68-36.864-20.48-30.208-30.72-20.48-37.376-7.68-36.864 7.68-30.208 20.48-20.48 30.208-7.68 36.864 7.68 36.864 20.48 30.208 30.208 19.968 36.864 7.168zM944.128 668.672q28.672 0 44.544-7.68t22.528-18.944 6.144-24.064-3.584-22.016-13.312-37.888-22.016-62.976-23.552-68.096-18.944-53.248q-13.312-40.96-33.28-56.832t-49.664-15.872l-35.84 0-65.536 0-86.016 0-96.256 0-253.952 0 14.336-92.16 517.12 0q49.152 0 49.152-41.984 0-20.48-9.728-35.328t-38.4-14.848l-49.152 0-94.208 0-118.784 0-119.808 0-99.328 0-55.296 0q-20.48 0-34.304 9.216t-23.04 24.064-14.848 32.256-8.704 32.768q-1.024 6.144-5.632 29.696t-11.264 58.88-14.848 78.848-16.384 87.552q-19.456 103.424-44.032 230.4l-76.8 0q-15.36 0-25.6 7.68t-16.896 18.432-9.216 23.04-2.56 22.528q0 20.48 13.824 33.792t37.376 13.312l21.504 0 21.504 0 25.6 0 34.816 0q20.48 0 32.768-6.144t19.456-15.36 10.24-19.456 5.12-17.408q2.048-8.192 4.096-23.04t4.096-30.208q3.072-18.432 6.144-38.912l700.416 0zM867.328 701.44l-374.784 0 135.168 135.168q23.552 23.552 51.712 24.064t51.712-23.04z"  horiz-adv-x="1024" />

    
    <glyph glyph-name="bofang" unicode="&#58963;" d="M852.727563 503.552893C956.997809 437.526365 956.941389 330.440483 852.727563 264.44968L281.888889-97.019655C177.618644-163.046186 93.090909-120.054114 93.090909-1.137364L93.090909 769.139937C93.090909 888.120794 177.675064 931.013033 281.888889 865.022231L852.727563 503.552893 852.727563 503.552893Z"  horiz-adv-x="1024" />

    
    <glyph glyph-name="wenzhang" unicode="&#59005;" d="M661.648 778H249.104c-39.088 0-70.304-31.752-70.304-70.304v-647.392c0-39.096 31.752-70.304 70.304-70.304h525.8c38.552 0 70.296 31.752 70.296 70.304V594.44L661.648 778z m12.664-74.704l96.176-96.184H684.584c-5.408 0-10.272 4.864-10.272 10.272V703.296z m126.928-642.992a26.24 26.24 0 0 0-26.344-26.352H249.104a26.24 26.24 0 0 0-26.344 26.352V707.696a26.24 26.24 0 0 0 26.344 26.344v0.464h381.328v-117.192c0-29.824 24.416-54.16 54.16-54.16h116.656v-502.848zM348.68 509.928h188.968a21.84 21.84 0 0 1 21.944 21.936 21.84 21.84 0 0 1-21.944 21.944H348.68a21.832 21.832 0 0 1-21.944-21.944 21.84 21.84 0 0 1 21.944-21.936zM674.848 251.2H348.68c-12.208 0-21.944-9.744-21.944-21.944s9.736-21.944 21.944-21.944h326.168c12.208 0 21.944 9.744 21.944 21.944S687.064 251.2 674.848 251.2zM348.68 400.144a21.824 21.824 0 0 1-21.944-21.944 21.832 21.832 0 0 1 21.944-21.936h326.168a21.832 21.832 0 0 1 21.944 21.936 21.832 21.832 0 0 1-21.944 21.944H348.68z"  horiz-adv-x="1024" />

    
    <glyph glyph-name="qiache" unicode="&#59195;" d="M912 680.4v-474c0-4.7-0.6-8.8-1.8-12.3-1.3-3.5-3.3-6.4-6.2-8.6s-5.5-3.9-7.6-5.4c-2.1-1.4-5.7-2.3-10.9-2.8s-8.6-0.8-10.4-1c-1.8-0.2-5.7-0.2-11.8 0-6 0.2-9.4 0.2-10.4 0.2 0-32.7-11.6-60.7-34.8-83.8-23.2-23.2-51.1-34.8-83.8-34.8s-60.7 11.6-83.8 34.8c-23.2 23.2-34.8 51.1-34.8 83.8H438c0-32.7-11.6-60.7-34.8-83.8-23.2-23.1-51.1-34.7-83.8-34.7s-60.7 11.6-83.8 34.8c-23.2 23.2-34.8 51.1-34.8 83.8h-29.6c-1 0-4.4-0.1-10.4-0.2-6-0.2-9.9-0.2-11.8 0-1.8 0.2-5.4 0.5-10.4 1-5.1 0.5-8.8 1.4-10.9 2.8-2.1 1.4-4.7 3.1-7.6 5.4-2.9 2.1-5.1 5-6.2 8.6-1.3 3.5-1.8 7.6-1.8 12.3 0 8 2.9 15 8.8 20.8 5.8 5.8 12.8 8.8 20.8 8.8v148c0 2.4-0.1 7.9-0.2 16.2-0.2 8.4-0.2 14.2 0 17.6s0.5 8.8 1.2 16c0.6 7.2 1.7 12.9 3 17.1 1.4 4.2 3.5 8.9 6.5 14.1 2.9 5.3 6.4 9.8 10.4 13.9l91.6 91.6c5.8 5.8 13.6 10.8 23.4 14.8 9.7 4 18.8 6 27.1 6h74.1v88.9c0 8 2.9 15 8.8 20.8 5.8 5.8 12.8 8.8 20.8 8.8h474c8 0 15-2.9 20.8-8.8 5.9-5.7 8.8-12.6 8.8-20.7zM201 413.8h177.8V532.3h-73.1c-4 0-7.4-1.4-10.2-4.2l-90.3-90.3c-2.8-2.8-4.2-6.1-4.2-10.2v-13.8z m160.1-278.7c11.7 11.7 17.6 25.6 17.6 41.7s-5.8 29.9-17.6 41.7c-11.8 11.7-25.6 17.6-41.7 17.6s-29.9-5.8-41.7-17.6c-11.8-11.7-17.6-25.6-17.6-41.7s5.8-30 17.6-41.7c11.7-11.7 25.6-17.6 41.7-17.6 16.1 0.1 30.1 5.9 41.7 17.6z m414.8 0c11.7 11.7 17.6 25.6 17.6 41.7s-5.8 29.9-17.6 41.7c-11.8 11.7-25.6 17.6-41.7 17.6s-29.9-5.8-41.7-17.6c-11.8-11.7-17.6-25.6-17.6-41.7s5.8-30 17.6-41.7c11.7-11.7 25.6-17.6 41.7-17.6 16.1 0.1 30 5.9 41.7 17.6z"  horiz-adv-x="1024" />

    
    <glyph glyph-name="tubiao09" unicode="&#58889;" d="M960.341161-65.534393c0-17.874947-12.503355-32.453666-28.013328-32.453666l-840.466346 0c-15.37796 0-27.883361 14.578719-27.883361 32.453666l0 0c0 18.00389 12.505402 32.45469 27.883361 32.45469l840.466346 0C947.837806-33.079704 960.341161-47.530504 960.341161-65.534393L960.341161-65.534393zM855.486132 623.261489c-12.381576-12.615924-32.763743-12.615924-45.265051 0l-135.681561 137.620819c-12.44093 12.609784-12.44093 33.277467 0 45.890321l45.265051 45.959909c12.383622 12.615924 32.764766 12.615924 45.270168 0l135.807433-137.683244c12.378506-12.679372 12.378506-33.340915 0-45.894415L855.486132 623.261489zM357.659602 118.423953c-12.381576-12.551453-32.76579-12.551453-45.267098 0l-135.868835 137.618772c-12.441954 12.614901-12.441954 33.281561-0.062425 45.892368l407.477561 413.114202c12.439907 12.550429 32.826168 12.550429 45.266074 0l135.743985-137.68222c12.507448-12.680395 12.507448-33.345009 0-45.896461L357.659602 118.423953zM131.189031 210.150357c-12.43786 12.610807-25.444706 8.616652-28.882156-8.876584l-32.763743-165.892032c-3.44052-17.494259 7.878812-28.90467 25.135653-25.420145l163.564922 33.09224c17.25684 3.487595 21.129217 16.669434 8.753781 29.34983L131.189031 210.150357z"  horiz-adv-x="1025" />

    
    <glyph glyph-name="weixuanzhong" unicode="&#58928;" d="M512-25.734872c-226.289839 0-409.734872 183.444009-409.734872 409.734872S285.709137 793.734872 512 793.734872s409.734872-183.444009 409.734872-409.734872S738.289839-25.734872 512-25.734872zM512 711.787488c-181.031053 0-327.787488-146.756435-327.787488-327.787488s146.756435-327.787488 327.787488-327.787488 327.787488 146.756435 327.787488 327.787488S693.031053 711.787488 512 711.787488z"  horiz-adv-x="1024" />

    
    <glyph glyph-name="xuanzhong" unicode="&#58925;" d="M512 832C262.4 832 64 633.6 64 384s198.4-448 448-448 448 198.4 448 448S761.6 832 512 832z m236.8-326.4L454.4 211.2c-12.8-12.8-32-12.8-44.8 0L275.2 352c-12.8 12.8-12.8 32 0 44.8 12.8 12.8 32 12.8 44.8 0l115.2-115.2L704 556.8c12.8 12.8 32 12.8 44.8 0 12.8-12.8 12.8-38.4 0-51.2z"  horiz-adv-x="1024" />

    
    </font>
</defs>
</svg>
